<svg xmlns="http://www.w3.org/2000/svg" viewBox="0 0 221.59 147.17"><defs><style>.cls-1{fill:#231f20;}.cls-10,.cls-11,.cls-12,.cls-13,.cls-14,.cls-15,.cls-16,.cls-17,.cls-18,.cls-19,.cls-2,.cls-20,.cls-3,.cls-4,.cls-6,.cls-7,.cls-8,.cls-9{fill:none;stroke-linejoin:round;}.cls-2{stroke:#dfdfdf;}.cls-2,.cls-3{stroke-width:0.5px;}.cls-3{stroke:#262626;stroke-linecap:square;}.cls-4{stroke:#6d6e71;}.cls-10,.cls-11,.cls-15,.cls-16,.cls-17,.cls-18,.cls-19,.cls-20,.cls-4,.cls-6,.cls-7,.cls-8,.cls-9{stroke-width:3px;opacity:0.75;}.cls-5{fill:#fff;stroke:#58595b;stroke-miterlimit:10;stroke-width:0.5px;}.cls-6{stroke:#f4837e;}.cls-7{stroke:#fdbd5f;}.cls-8{stroke:#83b780;}.cls-9{stroke:#8ab4da;}.cls-10{stroke:#a199ca;}.cls-11{stroke:#a373b2;}.cls-12,.cls-13,.cls-14{stroke:#231f20;}.cls-13{stroke-dasharray:3.01 3.51;}.cls-14{stroke-dasharray:6 7;}.cls-15{stroke:#a374b2;}.cls-16{stroke:#a199cb;}.cls-17{stroke:#8bb4da;}.cls-18{stroke:#84b781;}.cls-19{stroke:#fdbd60;}.cls-20{stroke:#f4847f;}</style></defs><title>resultsComparison</title><g id="F1"><path class="cls-1" d="M36,11.17h-.72V5.57a3.85,3.85,0,0,1-.67.6,4.32,4.32,0,0,1-.77.46V5.78a4.43,4.43,0,0,0,1.05-.83,3.16,3.16,0,0,0,.64-1H36Z" transform="translate(-4.88 -3.98)"/><path class="cls-1" d="M40.3,134.52l.72-.12q.22,1.41,1.14,1.41a1.1,1.1,0,0,0,.86-.42,1.59,1.59,0,0,0,.36-1.08,1.48,1.48,0,0,0-.33-1,1,1,0,0,0-.82-.38,1.72,1.72,0,0,0-.51.1l.08-.77h.11a1.19,1.19,0,0,0,.87-.33,1.17,1.17,0,0,0,.33-.87,1.15,1.15,0,0,0-.28-.81.89.89,0,0,0-.68-.3.91.91,0,0,0-.7.32,1.74,1.74,0,0,0-.36,1l-.72-.16A2.37,2.37,0,0,1,41,129.7a1.66,1.66,0,0,1,2.37.06,1.86,1.86,0,0,1,.5,1.33,1.73,1.73,0,0,1-.21.86,1.53,1.53,0,0,1-.59.59,1.32,1.32,0,0,1,.58.32,1.63,1.63,0,0,1,.37.6,2.37,2.37,0,0,1,.14.84,2.28,2.28,0,0,1-.58,1.61,1.83,1.83,0,0,1-1.39.63,1.69,1.69,0,0,1-1.27-.55A2.32,2.32,0,0,1,40.3,134.52Z" transform="translate(-4.88 -3.98)"/><path class="cls-1" d="M68.33,136.42V134.7H65.79v-.81l2.68-4.64h.59v4.64h.8v.81h-.8v1.71Zm0-2.52v-3.23L66.5,133.9Z" transform="translate(-4.88 -3.98)"/><path class="cls-1" d="M91.75,134.54l.76-.08a1.81,1.81,0,0,0,.4,1,1,1,0,0,0,.72.33,1.1,1.1,0,0,0,.88-.47,2,2,0,0,0,.37-1.29,1.79,1.79,0,0,0-.36-1.19,1.13,1.13,0,0,0-.9-.42,1.11,1.11,0,0,0-.61.18,1.28,1.28,0,0,0-.45.51l-.68-.11.57-3.68h2.92v.84H93l-.31,1.93a1.67,1.67,0,0,1,1.11-.45,1.65,1.65,0,0,1,1.28.63,2.5,2.5,0,0,1,.54,1.69,3,3,0,0,1-.54,1.8,1.72,1.72,0,0,1-1.46.75,1.74,1.74,0,0,1-1.29-.53A2.26,2.26,0,0,1,91.75,134.54Z" transform="translate(-4.88 -3.98)"/><path class="cls-1" d="M121.21,131l-.72.07a1.71,1.71,0,0,0-.3-.78.88.88,0,0,0-.69-.34,1.14,1.14,0,0,0-1,.78,4.78,4.78,0,0,0-.33,2,1.85,1.85,0,0,1,.63-.71,1.45,1.45,0,0,1,.8-.24,1.54,1.54,0,0,1,1.22.63,2.58,2.58,0,0,1,.52,1.69,3.16,3.16,0,0,1-.26,1.3,2,2,0,0,1-.67.86,1.57,1.57,0,0,1-.9.28,1.74,1.74,0,0,1-1.46-.8,4.7,4.7,0,0,1-.58-2.67,5.53,5.53,0,0,1,.59-3,1.76,1.76,0,0,1,1.51-.88,1.51,1.51,0,0,1,1.12.46A2.16,2.16,0,0,1,121.21,131Zm-2.94,3.09a2,2,0,0,0,.37,1.25,1.06,1.06,0,0,0,.85.47,1,1,0,0,0,.76-.44,2,2,0,0,0,.33-1.22,1.86,1.86,0,0,0-.33-1.18,1,1,0,0,0-.81-.42,1,1,0,0,0-.82.42A1.71,1.71,0,0,0,118.27,134.1Z" transform="translate(-4.88 -3.98)"/><path class="cls-1" d="M117.7,142.64V142h3.22v.71h-2.26a9,9,0,0,0,1,1,11.15,11.15,0,0,1,.94.89,2.59,2.59,0,0,1,.47.8,3.84,3.84,0,0,1-.35,3.15,1.7,1.7,0,0,1-1.43.72,1.76,1.76,0,0,1-1.48-.72,3.1,3.1,0,0,1-.54-1.92,3.23,3.23,0,0,1,.48-1.85,1.61,1.61,0,0,1,1.3-.75Q118.61,143.63,117.7,142.64Zm1.59,2.09a1.05,1.05,0,0,0-.9.53,2.49,2.49,0,0,0-.35,1.4,2.36,2.36,0,0,0,.37,1.38,1.08,1.08,0,0,0,.91.53,1,1,0,0,0,.9-.51,3,3,0,0,0,0-2.81A1.06,1.06,0,0,0,119.29,144.73Z" transform="translate(-4.88 -3.98)"/><path class="cls-1" d="M122.1,149.17V144h.65v.79a2.22,2.22,0,0,1,.46-.73.7.7,0,0,1,.47-.18,1.23,1.23,0,0,1,.74.28l-.24.82a.91.91,0,0,0-.52-.19.63.63,0,0,0-.42.16.86.86,0,0,0-.27.45,4,4,0,0,0-.14,1.07v2.71Z" transform="translate(-4.88 -3.98)"/><path class="cls-1" d="M126.58,149.28l1.7-7.4h.59l-1.71,7.4Z" transform="translate(-4.88 -3.98)"/><path class="cls-1" d="M131.67,151.15V144h.66v.67a1.69,1.69,0,0,1,.54-.61,1.26,1.26,0,0,1,.68-.19,1.49,1.49,0,0,1,.91.3,2,2,0,0,1,.65.91,3.89,3.89,0,0,1,.25,1.46,3.26,3.26,0,0,1-.55,2,1.62,1.62,0,0,1-1.3.72,1.19,1.19,0,0,1-.62-.17,1.55,1.55,0,0,1-.5-.48v2.52Zm.66-4.55a2.59,2.59,0,0,0,.34,1.48.92.92,0,0,0,1.62,0,3.53,3.53,0,0,0,0-3,.89.89,0,0,0-1.61,0A2.72,2.72,0,0,0,132.33,146.6Z" transform="translate(-4.88 -3.98)"/><path class="cls-1" d="M136.23,143v-1H137v1Zm0,6.15V144H137v5.19Z" transform="translate(-4.88 -3.98)"/><path class="cls-1" d="M137.59,149.17l1.55-2.69L137.71,144h.9l.65,1.21c.12.22.22.42.3.58l.33-.56.71-1.23h.86L140,146.42l1.58,2.75h-.88l-.87-1.61-.23-.43-1.12,2Z" transform="translate(-4.88 -3.98)"/><path class="cls-1" d="M145.06,147.5l.74.11a2.25,2.25,0,0,1-.67,1.25,1.77,1.77,0,0,1-1.2.42,1.8,1.8,0,0,1-1.46-.69,3.07,3.07,0,0,1-.56-2,3.22,3.22,0,0,1,.56-2,1.75,1.75,0,0,1,1.43-.71,1.69,1.69,0,0,1,1.38.69,3.17,3.17,0,0,1,.55,2v.23h-3.17a2.24,2.24,0,0,0,.41,1.32,1.09,1.09,0,0,0,.88.44Q144.74,148.56,145.06,147.5Zm-2.37-1.42h2.37a2,2,0,0,0-.29-1,1,1,0,0,0-1.71-.08A1.76,1.76,0,0,0,142.69,146.08Z" transform="translate(-4.88 -3.98)"/><path class="cls-1" d="M146.69,149.17V142h.72v7.16Z" transform="translate(-4.88 -3.98)"/><path class="cls-1" d="M148.26,147.61l.72-.14a1.28,1.28,0,0,0,.35.82,1.21,1.21,0,0,0,1.47,0,.76.76,0,0,0,.26-.59.57.57,0,0,0-.22-.48,2.78,2.78,0,0,0-.73-.29,5.28,5.28,0,0,1-1.12-.44,1.23,1.23,0,0,1-.44-.48,1.47,1.47,0,0,1-.16-.69,1.44,1.44,0,0,1,.42-1.08,1.61,1.61,0,0,1,1.18-.42,1.92,1.92,0,0,1,.83.17,1.32,1.32,0,0,1,.55.46,2,2,0,0,1,.26.83l-.7.12a.84.84,0,0,0-.92-.85,1.09,1.09,0,0,0-.7.19.59.59,0,0,0-.23.48.54.54,0,0,0,.22.45,3.87,3.87,0,0,0,.78.31,6,6,0,0,1,1.16.45,1.14,1.14,0,0,1,.41.46,1.52,1.52,0,0,1,.15.69,1.6,1.6,0,0,1-.47,1.2,1.76,1.76,0,0,1-1.29.46A1.67,1.67,0,0,1,148.26,147.61Z" transform="translate(-4.88 -3.98)"/><line class="cls-2" x1="37.45" y1="121.19" x2="37.45" y2="4.5"/><line class="cls-2" x1="63.17" y1="121.19" x2="63.17" y2="4.5"/><line class="cls-2" x1="88.88" y1="121.19" x2="88.88" y2="4.5"/><line class="cls-2" x1="114.6" y1="121.19" x2="114.6" y2="4.5"/><line class="cls-2" x1="140.31" y1="121.19" x2="140.31" y2="4.5"/><line class="cls-2" x1="166.03" y1="121.19" x2="166.03" y2="4.5"/><line class="cls-2" x1="191.74" y1="121.19" x2="191.74" y2="4.5"/><line class="cls-3" x1="217.45" y1="121.19" x2="217.45" y2="4.5"/><line class="cls-2" x1="217.45" y1="111.98" x2="37.45" y2="111.98"/><line class="cls-2" x1="217.45" y1="96.63" x2="37.45" y2="96.63"/><line class="cls-2" x1="217.45" y1="81.27" x2="37.45" y2="81.27"/><line class="cls-2" x1="217.45" y1="65.92" x2="37.45" y2="65.92"/><line class="cls-2" x1="217.45" y1="50.56" x2="37.45" y2="50.56"/><line class="cls-2" x1="217.45" y1="35.21" x2="37.45" y2="35.21"/><line class="cls-2" x1="217.45" y1="19.85" x2="37.45" y2="19.85"/><line class="cls-3" x1="217.45" y1="4.5" x2="37.45" y2="4.5"/><line class="cls-3" x1="37.45" y1="121.19" x2="217.45" y2="121.19"/><line class="cls-3" x1="37.45" y1="121.19" x2="37.45" y2="122.52"/><line class="cls-3" x1="63.17" y1="121.19" x2="63.17" y2="122.52"/><line class="cls-3" x1="88.88" y1="121.19" x2="88.88" y2="122.52"/><line class="cls-3" x1="114.6" y1="121.19" x2="114.6" y2="122.52"/><line class="cls-3" x1="140.31" y1="121.19" x2="140.31" y2="122.52"/><line class="cls-3" x1="166.03" y1="121.19" x2="166.03" y2="122.52"/><line class="cls-3" x1="191.74" y1="121.19" x2="191.74" y2="122.52"/><line class="cls-3" x1="217.45" y1="121.19" x2="217.45" y2="122.52"/><line class="cls-3" x1="37.45" y1="121.19" x2="37.45" y2="4.5"/><line class="cls-3" x1="37.45" y1="111.98" x2="35.65" y2="111.98"/><line class="cls-3" x1="37.45" y1="96.63" x2="35.65" y2="96.63"/><line class="cls-3" x1="37.45" y1="81.27" x2="35.65" y2="81.27"/><line class="cls-3" x1="37.45" y1="65.92" x2="35.65" y2="65.92"/><line class="cls-3" x1="37.45" y1="50.56" x2="35.65" y2="50.56"/><line class="cls-3" x1="37.45" y1="35.21" x2="35.65" y2="35.21"/><line class="cls-3" x1="37.45" y1="19.85" x2="35.65" y2="19.85"/><line class="cls-3" x1="37.45" y1="4.5" x2="35.65" y2="4.5"/><polyline class="cls-4" points="37.45 116.43 63.17 112.84 88.88 111.06 114.6 109.28 140.31 107.59 166.03 106.36 191.74 104.62 217.45 102.06"/><rect class="cls-5" x="147.03" y="36.01" width="65.09" height="79.42"/><line class="cls-6" x1="150.42" y1="42.61" x2="166.46" y2="42.61"/><path class="cls-1" d="M177.46,47l.66-.07a1.92,1.92,0,0,0,.24.83,1.35,1.35,0,0,0,.53.48,1.67,1.67,0,0,0,.78.18,1.41,1.41,0,0,0,1-.3,1,1,0,0,0,.35-.79,1,1,0,0,0-.13-.5.94.94,0,0,0-.38-.35,7.08,7.08,0,0,0-1.09-.38,3.85,3.85,0,0,1-1.06-.45,1.55,1.55,0,0,1-.49-.57,1.69,1.69,0,0,1-.18-.78,1.71,1.71,0,0,1,.5-1.28,1.86,1.86,0,0,1,1.36-.5,2.18,2.18,0,0,1,1,.23,1.66,1.66,0,0,1,.69.67,2.2,2.2,0,0,1,.26,1l-.67.06a1.39,1.39,0,0,0-.38-.93,1.27,1.27,0,0,0-.91-.3,1.36,1.36,0,0,0-.91.27.86.86,0,0,0-.31.69.79.79,0,0,0,.23.61,2.73,2.73,0,0,0,1,.44,6.73,6.73,0,0,1,1.1.38,1.68,1.68,0,0,1,1,1.61,2,2,0,0,1-.26,1,1.75,1.75,0,0,1-.71.69,2.27,2.27,0,0,1-1.08.24,2.1,2.1,0,0,1-1.56-.59A2.24,2.24,0,0,1,177.46,47Z" transform="translate(-4.88 -3.98)"/><path class="cls-1" d="M182,49.07l2-6.44h.75L187,49.07h-.8l-.61-2h-2.22l-.57,2Zm1.52-2.65h1.8l-.55-1.78q-.25-.82-.37-1.34a9.44,9.44,0,0,1-.29,1.23Z" transform="translate(-4.88 -3.98)"/><path class="cls-1" d="M187.49,49.07V42.63h.7v5.68h2.6v.76Z" transform="translate(-4.88 -3.98)"/><path class="cls-1" d="M191.64,49.07V42.63H194a2.47,2.47,0,0,1,1.08.18,1.38,1.38,0,0,1,.57.6,2,2,0,0,1,.22,1,1.64,1.64,0,0,1-1.49,1.76,1.8,1.8,0,0,1,.45.36,4.52,4.52,0,0,1,.55.82l.92,1.75h-.88l-.7-1.34a8.22,8.22,0,0,0-.62-1.06,1.21,1.21,0,0,0-.4-.37,1.28,1.28,0,0,0-.55-.09h-.81v2.86Zm.7-3.6h1.5a1.84,1.84,0,0,0,.75-.12A.9.9,0,0,0,195,45a1.15,1.15,0,0,0,.15-.59,1,1,0,0,0-.29-.77,1.17,1.17,0,0,0-.85-.28h-1.67Z" transform="translate(-4.88 -3.98)"/><path class="cls-1" d="M202.77,46.82l.7.22a3,3,0,0,1-.82,1.62,2,2,0,0,1-1.42.53,2.16,2.16,0,0,1-1.25-.36,2.53,2.53,0,0,1-.85-1.15,4.81,4.81,0,0,1-.33-1.87,4.37,4.37,0,0,1,.33-1.8,2.55,2.55,0,0,1,.9-1.11,2.25,2.25,0,0,1,1.27-.38,1.94,1.94,0,0,1,1.32.48,2.58,2.58,0,0,1,.77,1.4l-.69.2q-.35-1.34-1.41-1.34a1.56,1.56,0,0,0-.92.27,1.81,1.81,0,0,0-.62.84,3.89,3.89,0,0,0-.23,1.45,3.46,3.46,0,0,0,.47,2,1.44,1.44,0,0,0,1.24.66,1.36,1.36,0,0,0,1-.41A2.2,2.2,0,0,0,202.77,46.82Z" transform="translate(-4.88 -3.98)"/><path class="cls-1" d="M204.23,49.07V42.63h.65v6.44Z" transform="translate(-4.88 -3.98)"/><path class="cls-1" d="M205.64,47.68l.65-.12a1.16,1.16,0,0,0,.31.73.94.94,0,0,0,.68.24.93.93,0,0,0,.65-.21.68.68,0,0,0,.23-.53.52.52,0,0,0-.2-.43,2.51,2.51,0,0,0-.66-.26,4.75,4.75,0,0,1-1-.4,1.11,1.11,0,0,1-.4-.44,1.33,1.33,0,0,1-.14-.62,1.3,1.3,0,0,1,.38-1,1.45,1.45,0,0,1,1.06-.37,1.73,1.73,0,0,1,.75.15,1.19,1.19,0,0,1,.49.41,1.8,1.8,0,0,1,.24.74l-.63.11a.76.76,0,0,0-.83-.76,1,1,0,0,0-.63.17.53.53,0,0,0-.21.43.48.48,0,0,0,.2.41,3.51,3.51,0,0,0,.71.28,5.28,5.28,0,0,1,1,.41,1,1,0,0,1,.37.41,1.37,1.37,0,0,1,.13.62,1.44,1.44,0,0,1-.42,1.08,1.59,1.59,0,0,1-1.16.41A1.51,1.51,0,0,1,205.64,47.68Z" transform="translate(-4.88 -3.98)"/><path class="cls-1" d="M211,48.37l.09.7a1.92,1.92,0,0,1-.48.07,1,1,0,0,1-.54-.13.68.68,0,0,1-.28-.37,3.58,3.58,0,0,1-.08-.93V45h-.47v-.62h.47V43.25l.65-.47v1.63H211V45h-.65v2.73a1.29,1.29,0,0,0,.06.49.32.32,0,0,0,.31.16Z" transform="translate(-4.88 -3.98)"/><path class="cls-1" d="M211.64,49.07V44.41h.58v.71a2,2,0,0,1,.41-.65.63.63,0,0,1,.42-.16,1.11,1.11,0,0,1,.66.25l-.22.73a.82.82,0,0,0-.47-.17.57.57,0,0,0-.38.15.77.77,0,0,0-.24.4,3.65,3.65,0,0,0-.12,1v2.44Z" transform="translate(-4.88 -3.98)"/><path class="cls-1" d="M213.89,49.07v-.9h.74v.9Z" transform="translate(-4.88 -3.98)"/><line class="cls-7" x1="150.42" y1="52.25" x2="166.46" y2="52.25"/><path class="cls-1" d="M177.67,58.72V52.27h1.05L180,56.83l.25,1q.09-.36.28-1l1.27-4.48h.94v6.44H182V53.33l-1.54,5.39h-.63l-1.53-5.48v5.48Z" transform="translate(-4.88 -3.98)"/><path class="cls-1" d="M183.84,58.72V52.27h2a3.22,3.22,0,0,1,1,.12,1.4,1.4,0,0,1,.73.62,2.12,2.12,0,0,1,.27,1.11,2.19,2.19,0,0,1-.44,1.42,1.87,1.87,0,0,1-1.53.55h-1.35v2.62Zm.7-3.38h1.37a1.31,1.31,0,0,0,.94-.29,1.18,1.18,0,0,0,.3-.88,1.35,1.35,0,0,0-.15-.65.83.83,0,0,0-.36-.37,1.93,1.93,0,0,0-.75-.1h-1.35Z" transform="translate(-4.88 -3.98)"/><path class="cls-1" d="M190.28,58.72l-2.05-6.44H189L190.36,57q.16.54.28,1.05.12-.53.28-1.05l1.43-4.68h.71L191,58.72Z" transform="translate(-4.88 -3.98)"/><line class="cls-8" x1="150.42" y1="61.9" x2="166.46" y2="61.9"/><path class="cls-1" d="M195.68,69.63a3.23,3.23,0,0,0,.69.46l-.16.46a3,3,0,0,1-.88-.62,1.74,1.74,0,0,1-1,.31,1.71,1.71,0,0,1-1.46-.79,3,3,0,0,1-.5-1.8,3.4,3.4,0,0,1,.27-1.41,2.07,2.07,0,0,1,.71-.89,1.73,1.73,0,0,1,1-.3,1.71,1.71,0,0,1,1,.31,2.08,2.08,0,0,1,.71.89,3.37,3.37,0,0,1,.26,1.39,3.72,3.72,0,0,1-.16,1.13A2.44,2.44,0,0,1,195.68,69.63Zm-1.2-.85a1.88,1.88,0,0,1,.78.48,2.37,2.37,0,0,0,.48-1.61,2.94,2.94,0,0,0-.18-1.1,1.52,1.52,0,0,0-.51-.68,1.19,1.19,0,0,0-.71-.23,1.23,1.23,0,0,0-1,.51,2.42,2.42,0,0,0-.4,1.52,2.39,2.39,0,0,0,.41,1.51,1.24,1.24,0,0,0,1,.51,1.19,1.19,0,0,0,.55-.13,1.6,1.6,0,0,0-.54-.29Z" transform="translate(-4.88 -3.98)"/><path class="cls-1" d="M196.95,65.86v-.71h.5v.71Zm0,4.3V66.54h.5v3.63Z" transform="translate(-4.88 -3.98)"/><path class="cls-1" d="M177.46,66.28l.66-.07a1.92,1.92,0,0,0,.24.83,1.35,1.35,0,0,0,.53.48,1.67,1.67,0,0,0,.78.18,1.41,1.41,0,0,0,1-.3,1,1,0,0,0,.35-.79,1,1,0,0,0-.13-.5.94.94,0,0,0-.38-.35,7.08,7.08,0,0,0-1.09-.38,3.85,3.85,0,0,1-1.06-.45,1.55,1.55,0,0,1-.49-.57,1.69,1.69,0,0,1-.18-.78,1.71,1.71,0,0,1,.5-1.28,1.86,1.86,0,0,1,1.36-.5,2.18,2.18,0,0,1,1,.23,1.66,1.66,0,0,1,.69.67,2.2,2.2,0,0,1,.26,1l-.67.06a1.39,1.39,0,0,0-.38-.93,1.27,1.27,0,0,0-.91-.3,1.36,1.36,0,0,0-.91.27.86.86,0,0,0-.31.69.79.79,0,0,0,.23.61,2.73,2.73,0,0,0,1,.44,6.73,6.73,0,0,1,1.1.38,1.68,1.68,0,0,1,1,1.61,2,2,0,0,1-.26,1,1.75,1.75,0,0,1-.71.69,2.27,2.27,0,0,1-1.08.24,2.1,2.1,0,0,1-1.56-.59A2.24,2.24,0,0,1,177.46,66.28Z" transform="translate(-4.88 -3.98)"/><path class="cls-1" d="M182.61,68.36V61.91h2a3.22,3.22,0,0,1,1,.12,1.4,1.4,0,0,1,.73.62,2.12,2.12,0,0,1,.27,1.11,2.19,2.19,0,0,1-.44,1.42,1.87,1.87,0,0,1-1.53.55h-1.35v2.62Zm.7-3.38h1.37a1.31,1.31,0,0,0,.94-.29,1.18,1.18,0,0,0,.3-.88,1.35,1.35,0,0,0-.15-.65.83.83,0,0,0-.36-.37,1.93,1.93,0,0,0-.75-.1h-1.35Z" transform="translate(-4.88 -3.98)"/><path class="cls-1" d="M189.05,68.36,187,61.91h.76l1.38,4.68q.16.54.28,1.05.12-.53.28-1.05l1.43-4.68h.71l-2.07,6.44Z" transform="translate(-4.88 -3.98)"/><line class="cls-9" x1="150.42" y1="71.54" x2="166.46" y2="71.54"/><path class="cls-1" d="M192.14,79.77l1.59-2.61-1.4-2.4H193l.75,1.28a6.14,6.14,0,0,1,.33.62,6,6,0,0,1,.33-.57l.83-1.33h.59l-1.44,2.36,1.55,2.65h-.67l-1-1.79c-.06-.1-.12-.21-.18-.34l-.2.38-1,1.75Z" transform="translate(-4.88 -3.98)"/><path class="cls-1" d="M198.26,79.77v-.53a1.28,1.28,0,0,1-.41.46,1,1,0,0,1-.53.15,1,1,0,0,1-.6-.19.91.91,0,0,1-.33-.48,3,3,0,0,1-.08-.79V76.14h.5v2a3.16,3.16,0,0,0,.06.75.57.57,0,0,0,.21.3.56.56,0,0,0,.35.11.72.72,0,0,0,.6-.3,1.61,1.61,0,0,0,.2-.94V76.14h.51v3.63Z" transform="translate(-4.88 -3.98)"/><path class="cls-1" d="M177.46,75.92l.66-.07a1.92,1.92,0,0,0,.24.83,1.35,1.35,0,0,0,.53.48,1.67,1.67,0,0,0,.78.18,1.41,1.41,0,0,0,1-.3,1,1,0,0,0,.35-.79,1,1,0,0,0-.13-.5.94.94,0,0,0-.38-.35,7.08,7.08,0,0,0-1.09-.38,3.85,3.85,0,0,1-1.06-.45,1.55,1.55,0,0,1-.49-.57,1.69,1.69,0,0,1-.18-.78,1.71,1.71,0,0,1,.5-1.28,1.86,1.86,0,0,1,1.36-.5,2.18,2.18,0,0,1,1,.23,1.66,1.66,0,0,1,.69.67,2.2,2.2,0,0,1,.26,1l-.67.06a1.39,1.39,0,0,0-.38-.93,1.27,1.27,0,0,0-.91-.3,1.36,1.36,0,0,0-.91.27.86.86,0,0,0-.31.69.79.79,0,0,0,.23.61,2.73,2.73,0,0,0,1,.44,6.73,6.73,0,0,1,1.1.38,1.68,1.68,0,0,1,1,1.61,2,2,0,0,1-.26,1,1.75,1.75,0,0,1-.71.69,2.27,2.27,0,0,1-1.08.24,2.1,2.1,0,0,1-1.56-.59A2.24,2.24,0,0,1,177.46,75.92Z" transform="translate(-4.88 -3.98)"/><path class="cls-1" d="M182.61,78V71.55h2a3.22,3.22,0,0,1,1,.12,1.4,1.4,0,0,1,.73.62,2.12,2.12,0,0,1,.27,1.11,2.19,2.19,0,0,1-.44,1.42,1.87,1.87,0,0,1-1.53.55h-1.35V78Zm.7-3.38h1.37a1.31,1.31,0,0,0,.94-.29,1.18,1.18,0,0,0,.3-.88,1.35,1.35,0,0,0-.15-.65.83.83,0,0,0-.36-.37,1.93,1.93,0,0,0-.75-.1h-1.35Z" transform="translate(-4.88 -3.98)"/><path class="cls-1" d="M189.05,78,187,71.55h.76l1.38,4.68q.16.54.28,1.05.12-.53.28-1.05l1.43-4.68h.71L189.77,78Z" transform="translate(-4.88 -3.98)"/><line class="cls-10" x1="150.42" y1="81.18" x2="166.46" y2="81.18"/><path class="cls-1" d="M177.46,85.56l.66-.07a1.92,1.92,0,0,0,.24.83,1.35,1.35,0,0,0,.53.48,1.67,1.67,0,0,0,.78.18,1.41,1.41,0,0,0,1-.3,1,1,0,0,0,.35-.79,1,1,0,0,0-.13-.5.94.94,0,0,0-.38-.35,7.08,7.08,0,0,0-1.09-.38,3.85,3.85,0,0,1-1.06-.45,1.55,1.55,0,0,1-.49-.57,1.69,1.69,0,0,1-.18-.78,1.71,1.71,0,0,1,.5-1.28,1.86,1.86,0,0,1,1.36-.5,2.18,2.18,0,0,1,1,.23,1.66,1.66,0,0,1,.69.67,2.2,2.2,0,0,1,.26,1l-.67.06a1.39,1.39,0,0,0-.38-.93,1.27,1.27,0,0,0-.91-.3,1.36,1.36,0,0,0-.91.27.86.86,0,0,0-.31.69.79.79,0,0,0,.23.61,2.73,2.73,0,0,0,1,.44,6.73,6.73,0,0,1,1.1.38,1.68,1.68,0,0,1,1,1.61,2,2,0,0,1-.26,1,1.75,1.75,0,0,1-.71.69,2.27,2.27,0,0,1-1.08.24,2.1,2.1,0,0,1-1.56-.59A2.24,2.24,0,0,1,177.46,85.56Z" transform="translate(-4.88 -3.98)"/><path class="cls-1" d="M182.59,87.64V81.2h2a2.06,2.06,0,0,1,1,.19,1.44,1.44,0,0,1,.58.58,1.74,1.74,0,0,1,.22.87,1.64,1.64,0,0,1-.19.8,1.5,1.5,0,0,1-.54.57,1.43,1.43,0,0,1,.72.57,1.76,1.76,0,0,1,.26,1,2.13,2.13,0,0,1-.24,1,1.48,1.48,0,0,1-.64.64,2.49,2.49,0,0,1-1.1.2Zm.7-3.74h1.14a2.3,2.3,0,0,0,.64-.06.8.8,0,0,0,.42-.31,1,1,0,0,0,.15-.59,1.13,1.13,0,0,0-.13-.58.71.71,0,0,0-.36-.32,2.46,2.46,0,0,0-.8-.09h-1.06Zm0,3h1.32a1.92,1.92,0,0,0,.64-.08.88.88,0,0,0,.46-.38,1.26,1.26,0,0,0,.16-.66,1.19,1.19,0,0,0-.15-.62.9.9,0,0,0-.4-.37,2,2,0,0,0-.79-.12h-1.22Z" transform="translate(-4.88 -3.98)"/><path class="cls-1" d="M187.58,87.64V81.2h3.56V82h-2.87v2h2.48v.76h-2.48v2.93Z" transform="translate(-4.88 -3.98)"/><line class="cls-11" x1="150.42" y1="90.82" x2="166.46" y2="90.82"/><path class="cls-1" d="M177.47,97.67l.63.11a.82.82,0,0,0,.26.56.92.92,0,0,0,.61.18.95.95,0,0,0,1-.81,5.81,5.81,0,0,0,.06-1,1.51,1.51,0,0,1-.47.45,1.14,1.14,0,0,1-.58.15,1.39,1.39,0,0,1-1.14-.58,2.84,2.84,0,0,1-.52-1.79,3.46,3.46,0,0,1,.23-1.31,1.81,1.81,0,0,1,.6-.83,1.4,1.4,0,0,1,.83-.26,1.19,1.19,0,0,1,.62.17,1.54,1.54,0,0,1,.49.5v-.56h.6v4a4.74,4.74,0,0,1-.18,1.54,1.49,1.49,0,0,1-.58.72,1.7,1.7,0,0,1-1,.27,1.55,1.55,0,0,1-1.14-.4A1.46,1.46,0,0,1,177.47,97.67Zm.54-2.8a2.34,2.34,0,0,0,.3,1.34.9.9,0,0,0,.74.42.91.91,0,0,0,.75-.41,2.92,2.92,0,0,0,0-2.63.94.94,0,0,0-.77-.43.87.87,0,0,0-.71.43A2.19,2.19,0,0,0,178,94.86Z" transform="translate(-4.88 -3.98)"/><path class="cls-1" d="M181.75,97.28V90.84h.7v5.68h2.6v.76Z" transform="translate(-4.88 -3.98)"/><path class="cls-1" d="M185.56,94.95a2.81,2.81,0,0,1,.51-1.82,1.64,1.64,0,0,1,2.56,0,2.7,2.7,0,0,1,.51,1.78,2.91,2.91,0,0,1-.5,1.87,1.65,1.65,0,0,1-2.57,0A2.79,2.79,0,0,1,185.56,94.95Zm.66,0a2.25,2.25,0,0,0,.33,1.35,1,1,0,0,0,.82.44,1,1,0,0,0,.79-.45,2.92,2.92,0,0,0,0-2.69,1,1,0,0,0-.82-.44,1,1,0,0,0-.79.44A2.27,2.27,0,0,0,186.23,94.94Z" transform="translate(-4.88 -3.98)"/><path class="cls-1" d="M192.49,94.75V94h2.24v2.4a3.83,3.83,0,0,1-1.06.75,2.69,2.69,0,0,1-1.13.25,2.51,2.51,0,0,1-1.38-.39,2.65,2.65,0,0,1-1-1.13,4.12,4.12,0,0,1-.35-1.79,4.41,4.41,0,0,1,.36-1.84,2.61,2.61,0,0,1,.93-1.15,2.46,2.46,0,0,1,1.36-.37,2.27,2.27,0,0,1,1,.22,1.91,1.91,0,0,1,.72.61,2.86,2.86,0,0,1,.42,1.09l-.63.21a2.36,2.36,0,0,0-.32-.81,1.32,1.32,0,0,0-.51-.42,1.61,1.61,0,0,0-.71-.15,1.74,1.74,0,0,0-1,.28,1.93,1.93,0,0,0-.67.87,3.66,3.66,0,0,0-.25,1.44A3,3,0,0,0,191.1,96a1.75,1.75,0,0,0,1.41.64,2,2,0,0,0,.85-.2A2.15,2.15,0,0,0,194,96v-1.2Z" transform="translate(-4.88 -3.98)"/><line class="cls-4" x1="150.42" y1="100.46" x2="166.46" y2="100.46"/><path class="cls-1" d="M177.67,106.92v-6.44h1.05L180,105l.25,1q.09-.36.28-1l1.27-4.48h.94v6.44H182v-5.39l-1.54,5.39h-.63l-1.53-5.48v5.48Z" transform="translate(-4.88 -3.98)"/><path class="cls-1" d="M183.6,104.85l.66-.07a1.92,1.92,0,0,0,.24.83,1.35,1.35,0,0,0,.53.48,1.67,1.67,0,0,0,.78.18,1.41,1.41,0,0,0,1-.3,1,1,0,0,0,.35-.79,1,1,0,0,0-.13-.5.94.94,0,0,0-.38-.35,7.08,7.08,0,0,0-1.09-.38,3.85,3.85,0,0,1-1.06-.45,1.55,1.55,0,0,1-.49-.57,1.69,1.69,0,0,1-.18-.78,1.71,1.71,0,0,1,.5-1.28,1.86,1.86,0,0,1,1.36-.5,2.18,2.18,0,0,1,1,.23,1.66,1.66,0,0,1,.69.67,2.2,2.2,0,0,1,.26,1l-.67.06a1.39,1.39,0,0,0-.38-.93,1.27,1.27,0,0,0-.91-.3,1.36,1.36,0,0,0-.91.27.86.86,0,0,0-.31.69.79.79,0,0,0,.23.61,2.73,2.73,0,0,0,1,.44,6.73,6.73,0,0,1,1.1.38,1.68,1.68,0,0,1,1,1.61,2,2,0,0,1-.26,1,1.75,1.75,0,0,1-.71.69,2.27,2.27,0,0,1-1.08.24,2.1,2.1,0,0,1-1.56-.59A2.24,2.24,0,0,1,183.6,104.85Z" transform="translate(-4.88 -3.98)"/><path class="cls-1" d="M188.77,106.92v-6.44h3.82v.76h-3.12v2h2.92V104h-2.92v2.19h3.24v.76Z" transform="translate(-4.88 -3.98)"/><path class="cls-1" d="M193.68,106.92v-6.44H196a2.47,2.47,0,0,1,1.08.18,1.38,1.38,0,0,1,.57.6,2,2,0,0,1,.22,1,1.64,1.64,0,0,1-1.49,1.76,1.8,1.8,0,0,1,.45.36,4.52,4.52,0,0,1,.55.82l.92,1.75h-.88l-.7-1.34a8.22,8.22,0,0,0-.62-1.06,1.21,1.21,0,0,0-.4-.37,1.28,1.28,0,0,0-.55-.09h-.81v2.86Zm.7-3.6h1.5a1.84,1.84,0,0,0,.75-.12.9.9,0,0,0,.4-.37,1.15,1.15,0,0,0,.15-.59,1,1,0,0,0-.29-.77,1.17,1.17,0,0,0-.85-.28h-1.67Z" transform="translate(-4.88 -3.98)"/><line class="cls-12" x1="150.42" y1="110.1" x2="153.42" y2="110.1"/><line class="cls-13" x1="156.93" y1="110.1" x2="161.7" y2="110.1"/><line class="cls-12" x1="163.46" y1="110.1" x2="166.46" y2="110.1"/><path class="cls-1" d="M177.68,116.56v-6.44h1.82a3.41,3.41,0,0,1,1,.12,1.75,1.75,0,0,1,.8.56,2.93,2.93,0,0,1,.53,1,5.1,5.1,0,0,1,.19,1.47,4.81,4.81,0,0,1-.32,1.86,2.27,2.27,0,0,1-.82,1.08,2.43,2.43,0,0,1-1.32.32Zm.7-.76h1.13a2,2,0,0,0,1-.22,1.4,1.4,0,0,0,.54-.71,4.42,4.42,0,0,0,.25-1.57,3.67,3.67,0,0,0-.27-1.54,1.46,1.46,0,0,0-.68-.75,2.31,2.31,0,0,0-.89-.13h-1.11Z" transform="translate(-4.88 -3.98)"/><path class="cls-1" d="M182.93,111v-.91h.65V111Zm0,5.53v-4.67h.65v4.67Z" transform="translate(-4.88 -3.98)"/><path class="cls-1" d="M184.32,115.16,185,115a1.16,1.16,0,0,0,.31.73.94.94,0,0,0,.68.24.93.93,0,0,0,.65-.21.68.68,0,0,0,.23-.53.52.52,0,0,0-.2-.43,2.51,2.51,0,0,0-.66-.26,4.75,4.75,0,0,1-1-.4,1.11,1.11,0,0,1-.4-.44,1.33,1.33,0,0,1-.14-.62,1.3,1.3,0,0,1,.38-1,1.45,1.45,0,0,1,1.06-.37,1.73,1.73,0,0,1,.75.15,1.19,1.19,0,0,1,.49.41,1.8,1.8,0,0,1,.24.74l-.63.11a.76.76,0,0,0-.83-.76,1,1,0,0,0-.63.17.53.53,0,0,0-.21.43.48.48,0,0,0,.2.41,3.51,3.51,0,0,0,.71.28,5.28,5.28,0,0,1,1,.41,1,1,0,0,1,.37.41,1.37,1.37,0,0,1,.13.62,1.44,1.44,0,0,1-.42,1.08,1.59,1.59,0,0,1-1.16.41A1.51,1.51,0,0,1,184.32,115.16Z" transform="translate(-4.88 -3.98)"/><path class="cls-1" d="M189.7,115.85l.09.7a1.92,1.92,0,0,1-.48.07,1,1,0,0,1-.54-.13.68.68,0,0,1-.28-.37,3.58,3.58,0,0,1-.08-.93v-2.69h-.47v-.62h.47v-1.16l.65-.47v1.63h.65v.62H189v2.73a1.29,1.29,0,0,0,.06.49.32.32,0,0,0,.31.16Z" transform="translate(-4.88 -3.98)"/><path class="cls-1" d="M190.51,116.56v-.9h.74v.9Z" transform="translate(-4.88 -3.98)"/><path class="cls-1" d="M195.73,116.56v-5.68H194v-.76h4.19v.76h-1.75v5.68Z" transform="translate(-4.88 -3.98)"/><path class="cls-1" d="M198.53,116.56v-4.67h.58v.71a2,2,0,0,1,.41-.65.63.63,0,0,1,.42-.16,1.11,1.11,0,0,1,.66.25l-.22.73a.82.82,0,0,0-.47-.17.57.57,0,0,0-.38.15.77.77,0,0,0-.24.4,3.65,3.65,0,0,0-.12,1v2.44Z" transform="translate(-4.88 -3.98)"/><path class="cls-1" d="M203.48,116a2.42,2.42,0,0,1-.68.51,1.65,1.65,0,0,1-.73.17,1.28,1.28,0,0,1-1-.36,1.32,1.32,0,0,1-.36-1,1.49,1.49,0,0,1,.17-.72,1.24,1.24,0,0,1,.46-.49,2.4,2.4,0,0,1,.88-.26,4.88,4.88,0,0,0,1.16-.28v-.2a1,1,0,0,0-.17-.67.93.93,0,0,0-.74-.28,1,1,0,0,0-.68.19,1.22,1.22,0,0,0-.33.7l-.64-.11a1.77,1.77,0,0,1,.55-1.09,1.82,1.82,0,0,1,1.19-.34,1.7,1.7,0,0,1,.94.23,1,1,0,0,1,.43.56,4,4,0,0,1,.09,1v1.05a13.56,13.56,0,0,0,0,1.4,2.1,2.1,0,0,0,.17.56h-.68A2,2,0,0,1,203.48,116Zm-.05-1.77a4.11,4.11,0,0,1-1.06.3,2,2,0,0,0-.57.16.62.62,0,0,0-.25.25.77.77,0,0,0-.09.38.71.71,0,0,0,.21.53.79.79,0,0,0,.57.2,1.15,1.15,0,0,0,.63-.18,1.12,1.12,0,0,0,.42-.48,2.14,2.14,0,0,0,.14-.88Z" transform="translate(-4.88 -3.98)"/><path class="cls-1" d="M205.09,116.56v-4.67h.58v.66a1.52,1.52,0,0,1,.52-.57,1.3,1.3,0,0,1,.7-.19,1.34,1.34,0,0,1,.57.12,1.16,1.16,0,0,1,.42.32,1.28,1.28,0,0,1,.24.51,4.23,4.23,0,0,1,.08,1v2.87h-.65v-2.84a2.34,2.34,0,0,0-.09-.75.73.73,0,0,0-.71-.5.9.9,0,0,0-.74.35,1.94,1.94,0,0,0-.28,1.19v2.55Z" transform="translate(-4.88 -3.98)"/><path class="cls-1" d="M208.94,115.16l.65-.12a1.16,1.16,0,0,0,.31.73.94.94,0,0,0,.68.24.93.93,0,0,0,.65-.21.68.68,0,0,0,.23-.53.52.52,0,0,0-.2-.43,2.51,2.51,0,0,0-.66-.26,4.75,4.75,0,0,1-1-.4,1.11,1.11,0,0,1-.4-.44,1.33,1.33,0,0,1-.14-.62,1.3,1.3,0,0,1,.38-1,1.45,1.45,0,0,1,1.06-.37,1.73,1.73,0,0,1,.75.15,1.19,1.19,0,0,1,.49.41,1.8,1.8,0,0,1,.24.74l-.63.11a.76.76,0,0,0-.83-.76,1,1,0,0,0-.63.17.53.53,0,0,0-.21.43.48.48,0,0,0,.2.41,3.51,3.51,0,0,0,.71.28,5.28,5.28,0,0,1,1,.41,1,1,0,0,1,.37.41,1.37,1.37,0,0,1,.13.62,1.44,1.44,0,0,1-.42,1.08,1.59,1.59,0,0,1-1.16.41A1.51,1.51,0,0,1,208.94,115.16Z" transform="translate(-4.88 -3.98)"/><path class="cls-1" d="M213.09,116.56v-.9h.74v.9Z" transform="translate(-4.88 -3.98)"/><path class="cls-1" d="M143.24,130.2v-.84H147V130a10.72,10.72,0,0,0-1.49,2.87,12.21,12.21,0,0,0-.74,3.51h-.74a10.41,10.41,0,0,1,.29-2.09,12.7,12.7,0,0,1,.74-2.28,10.1,10.1,0,0,1,1-1.85Z" transform="translate(-4.88 -3.98)"/><path class="cls-1" d="M170,132.53a1.43,1.43,0,0,1-.65-.56,1.72,1.72,0,0,1-.22-.91,1.87,1.87,0,0,1,.48-1.33,1.67,1.67,0,0,1,2.42,0,1.9,1.9,0,0,1,.48,1.35,1.67,1.67,0,0,1-.21.88,1.42,1.42,0,0,1-.65.56,1.63,1.63,0,0,1,.82.68,2.49,2.49,0,0,1-.27,2.72,1.87,1.87,0,0,1-2.75,0,2.25,2.25,0,0,1-.55-1.59,2.18,2.18,0,0,1,.3-1.19A1.46,1.46,0,0,1,170,132.53Zm-.38,1.82a1.55,1.55,0,0,0,.35,1.06,1.1,1.1,0,0,0,1.69,0,1.52,1.52,0,0,0,.35-1,1.54,1.54,0,0,0-.36-1.06,1.1,1.1,0,0,0-.85-.4,1.06,1.06,0,0,0-.84.4A1.54,1.54,0,0,0,169.66,134.35Zm.24-3.31a1.21,1.21,0,0,0,.28.84.9.9,0,0,0,1.35,0,1.14,1.14,0,0,0,.28-.79,1.18,1.18,0,0,0-.29-.82.87.87,0,0,0-1.34,0A1.12,1.12,0,0,0,169.89,131Z" transform="translate(-4.88 -3.98)"/><path class="cls-1" d="M194.75,134.76l.69-.08q.17,1.13,1,1.13a1,1,0,0,0,.66-.25,1.89,1.89,0,0,0,.5-.88,4.76,4.76,0,0,0,.21-1.47V133a1.81,1.81,0,0,1-.61.69,1.38,1.38,0,0,1-.78.25,1.56,1.56,0,0,1-1.24-.63,2.61,2.61,0,0,1-.52-1.72,2.68,2.68,0,0,1,.54-1.77,1.64,1.64,0,0,1,2.33-.29,2.29,2.29,0,0,1,.73,1.06,6.16,6.16,0,0,1,.26,2,7.39,7.39,0,0,1-.28,2.29,2.5,2.5,0,0,1-.75,1.19,1.68,1.68,0,0,1-1.07.38,1.5,1.5,0,0,1-1.12-.46A2.13,2.13,0,0,1,194.75,134.76Zm3-3.16a1.92,1.92,0,0,0-.34-1.21,1,1,0,0,0-.79-.44,1,1,0,0,0-.83.47,2,2,0,0,0-.36,1.25,1.7,1.7,0,0,0,.35,1.12,1.05,1.05,0,0,0,.83.42,1,1,0,0,0,.81-.42A1.88,1.88,0,0,0,197.7,131.6Z" transform="translate(-4.88 -3.98)"/><path class="cls-1" d="M220.8,136.42h-.72v-5.6a3.83,3.83,0,0,1-.67.6,4.3,4.3,0,0,1-.77.46V131a4.44,4.44,0,0,0,1.05-.83,3.16,3.16,0,0,0,.64-1h.47Z" transform="translate(-4.88 -3.98)"/><path class="cls-1" d="M222.65,132.89a6,6,0,0,1,.49-2.73,1.54,1.54,0,0,1,1.43-.93,1.5,1.5,0,0,1,1.32.75,5.52,5.52,0,0,1,.59,2.91,6.06,6.06,0,0,1-.48,2.72,1.54,1.54,0,0,1-1.44.93,1.59,1.59,0,0,1-1.37-.82A5.47,5.47,0,0,1,222.65,132.89Zm.74,0a5.42,5.42,0,0,0,.33,2.34,1,1,0,0,0,.86.59,1,1,0,0,0,.83-.6,8.35,8.35,0,0,0,0-4.67,1,1,0,0,0-.87-.59,1,1,0,0,0-.82.6A5.49,5.49,0,0,0,223.38,132.88Z" transform="translate(-4.88 -3.98)"/><path class="cls-1" d="M26.41,38a6.05,6.05,0,0,1,.49-2.73,1.54,1.54,0,0,1,1.43-.93,1.5,1.5,0,0,1,1.32.75A5.52,5.52,0,0,1,30.24,38a6.06,6.06,0,0,1-.48,2.72,1.54,1.54,0,0,1-1.44.93,1.59,1.59,0,0,1-1.37-.82A5.47,5.47,0,0,1,26.41,38Zm.74,0a5.41,5.41,0,0,0,.33,2.34,1,1,0,0,0,.86.59,1,1,0,0,0,.83-.6A5.45,5.45,0,0,0,29.5,38a5.41,5.41,0,0,0-.33-2.34,1,1,0,0,0-.87-.59,1,1,0,0,0-.82.6A5.48,5.48,0,0,0,27.15,38Z" transform="translate(-4.88 -3.98)"/><path class="cls-1" d="M31.4,41.52v-1h.82v1Z" transform="translate(-4.88 -3.98)"/><path class="cls-1" d="M33.36,39.86l.69-.08q.17,1.13,1,1.13a1,1,0,0,0,.66-.25,1.9,1.9,0,0,0,.5-.88,4.76,4.76,0,0,0,.21-1.47v-.18a1.81,1.81,0,0,1-.61.69,1.38,1.38,0,0,1-.78.25,1.56,1.56,0,0,1-1.24-.63,2.61,2.61,0,0,1-.52-1.72A2.68,2.68,0,0,1,33.79,35a1.64,1.64,0,0,1,2.33-.29,2.29,2.29,0,0,1,.73,1.06,6.14,6.14,0,0,1,.26,2,7.39,7.39,0,0,1-.28,2.29,2.5,2.5,0,0,1-.75,1.19,1.68,1.68,0,0,1-1.07.38,1.51,1.51,0,0,1-1.12-.46A2.13,2.13,0,0,1,33.36,39.86Zm3-3.16A1.92,1.92,0,0,0,36,35.49a1,1,0,0,0-.79-.44,1,1,0,0,0-.83.47A2,2,0,0,0,34,36.77a1.7,1.7,0,0,0,.35,1.12,1.05,1.05,0,0,0,.83.42,1,1,0,0,0,.81-.42A1.88,1.88,0,0,0,36.31,36.7Z" transform="translate(-4.88 -3.98)"/><path class="cls-1" d="M21.85,22.81a6.05,6.05,0,0,1,.49-2.73,1.54,1.54,0,0,1,1.43-.93,1.5,1.5,0,0,1,1.32.75,5.52,5.52,0,0,1,.59,2.91,6.06,6.06,0,0,1-.48,2.72,1.54,1.54,0,0,1-1.44.93,1.59,1.59,0,0,1-1.37-.82A5.47,5.47,0,0,1,21.85,22.81Zm.74,0a5.41,5.41,0,0,0,.33,2.34,1,1,0,0,0,.86.59,1,1,0,0,0,.83-.6,5.45,5.45,0,0,0,.33-2.33,5.41,5.41,0,0,0-.33-2.34,1,1,0,0,0-.87-.59,1,1,0,0,0-.82.6A5.48,5.48,0,0,0,22.59,22.81Z" transform="translate(-4.88 -3.98)"/><path class="cls-1" d="M26.84,26.34v-1h.82v1Z" transform="translate(-4.88 -3.98)"/><path class="cls-1" d="M28.8,24.69l.69-.08q.17,1.13,1,1.13a1,1,0,0,0,.66-.25,1.9,1.9,0,0,0,.5-.88,4.76,4.76,0,0,0,.21-1.47V23a1.81,1.81,0,0,1-.61.69,1.38,1.38,0,0,1-.78.25,1.56,1.56,0,0,1-1.24-.63,2.61,2.61,0,0,1-.52-1.72,2.68,2.68,0,0,1,.54-1.77,1.64,1.64,0,0,1,2.33-.29,2.29,2.29,0,0,1,.73,1.06,6.14,6.14,0,0,1,.26,2,7.39,7.39,0,0,1-.28,2.29,2.5,2.5,0,0,1-.75,1.19,1.68,1.68,0,0,1-1.07.38A1.51,1.51,0,0,1,29.34,26,2.13,2.13,0,0,1,28.8,24.69Zm3-3.16a1.92,1.92,0,0,0-.34-1.21,1,1,0,0,0-.79-.44,1,1,0,0,0-.83.47,2,2,0,0,0-.36,1.25,1.7,1.7,0,0,0,.35,1.12,1.05,1.05,0,0,0,.83.42,1,1,0,0,0,.81-.42A1.88,1.88,0,0,0,31.75,21.53Z" transform="translate(-4.88 -3.98)"/><path class="cls-1" d="M33.25,24.47l.76-.08a1.81,1.81,0,0,0,.4,1,1,1,0,0,0,.72.33,1.1,1.1,0,0,0,.88-.47A2,2,0,0,0,36.38,24,1.79,1.79,0,0,0,36,22.79a1.13,1.13,0,0,0-.9-.42,1.11,1.11,0,0,0-.61.18,1.28,1.28,0,0,0-.45.51L33.38,23,34,19.28h2.92v.84H34.52L34.21,22a1.67,1.67,0,0,1,1.11-.45,1.65,1.65,0,0,1,1.28.63,2.5,2.5,0,0,1,.54,1.69,3,3,0,0,1-.54,1.8,1.72,1.72,0,0,1-1.46.75,1.74,1.74,0,0,1-1.29-.53A2.26,2.26,0,0,1,33.25,24.47Z" transform="translate(-4.88 -3.98)"/><path class="cls-1" d="M26.41,68.34a6.05,6.05,0,0,1,.49-2.73,1.54,1.54,0,0,1,1.43-.93,1.5,1.5,0,0,1,1.32.75,5.52,5.52,0,0,1,.59,2.91,6.06,6.06,0,0,1-.48,2.72,1.54,1.54,0,0,1-1.44.93,1.59,1.59,0,0,1-1.37-.82A5.47,5.47,0,0,1,26.41,68.34Zm.74,0a5.41,5.41,0,0,0,.33,2.34,1,1,0,0,0,.86.59,1,1,0,0,0,.83-.6,5.45,5.45,0,0,0,.33-2.33A5.41,5.41,0,0,0,29.17,66a1,1,0,0,0-.87-.59,1,1,0,0,0-.82.6A5.48,5.48,0,0,0,27.15,68.34Z" transform="translate(-4.88 -3.98)"/><path class="cls-1" d="M31.4,71.87v-1h.82v1Z" transform="translate(-4.88 -3.98)"/><path class="cls-1" d="M34.37,68a1.43,1.43,0,0,1-.65-.56,1.72,1.72,0,0,1-.22-.91A1.86,1.86,0,0,1,34,65.19a1.67,1.67,0,0,1,2.42,0,1.9,1.9,0,0,1,.48,1.35,1.68,1.68,0,0,1-.21.88A1.42,1.42,0,0,1,36,68a1.63,1.63,0,0,1,.82.68,2.49,2.49,0,0,1-.27,2.72,1.87,1.87,0,0,1-2.75,0,2.25,2.25,0,0,1-.55-1.59,2.18,2.18,0,0,1,.3-1.19A1.47,1.47,0,0,1,34.37,68ZM34,69.8a1.55,1.55,0,0,0,.35,1.06,1.1,1.1,0,0,0,1.69,0,1.52,1.52,0,0,0,.35-1A1.54,1.54,0,0,0,36,68.77a1.1,1.1,0,0,0-.85-.4,1.06,1.06,0,0,0-.84.4A1.53,1.53,0,0,0,34,69.8Zm.24-3.31a1.21,1.21,0,0,0,.28.84.9.9,0,0,0,1.35,0,1.14,1.14,0,0,0,.28-.79,1.19,1.19,0,0,0-.29-.82.87.87,0,0,0-1.34,0A1.12,1.12,0,0,0,34.23,66.5Z" transform="translate(-4.88 -3.98)"/><path class="cls-1" d="M21.85,53.16a6.05,6.05,0,0,1,.49-2.73,1.54,1.54,0,0,1,1.43-.93,1.5,1.5,0,0,1,1.32.75,5.52,5.52,0,0,1,.59,2.91,6.06,6.06,0,0,1-.48,2.72,1.54,1.54,0,0,1-1.44.93A1.59,1.59,0,0,1,22.39,56,5.47,5.47,0,0,1,21.85,53.16Zm.74,0a5.41,5.41,0,0,0,.33,2.34,1,1,0,0,0,.86.59,1,1,0,0,0,.83-.6,5.45,5.45,0,0,0,.33-2.33,5.41,5.41,0,0,0-.33-2.34,1,1,0,0,0-.87-.59,1,1,0,0,0-.82.6A5.48,5.48,0,0,0,22.59,53.16Z" transform="translate(-4.88 -3.98)"/><path class="cls-1" d="M26.84,56.69v-1h.82v1Z" transform="translate(-4.88 -3.98)"/><path class="cls-1" d="M29.81,52.81a1.43,1.43,0,0,1-.65-.56,1.72,1.72,0,0,1-.22-.91A1.86,1.86,0,0,1,29.41,50a1.67,1.67,0,0,1,2.42,0,1.9,1.9,0,0,1,.48,1.35,1.68,1.68,0,0,1-.21.88,1.42,1.42,0,0,1-.65.56,1.63,1.63,0,0,1,.82.68A2.49,2.49,0,0,1,32,56.21a1.87,1.87,0,0,1-2.75,0,2.25,2.25,0,0,1-.55-1.59,2.18,2.18,0,0,1,.3-1.19A1.47,1.47,0,0,1,29.81,52.81Zm-.38,1.82a1.55,1.55,0,0,0,.35,1.06,1.1,1.1,0,0,0,1.69,0,1.52,1.52,0,0,0,.35-1,1.54,1.54,0,0,0-.36-1.06,1.1,1.1,0,0,0-.85-.4,1.06,1.06,0,0,0-.84.4A1.53,1.53,0,0,0,29.43,54.63Zm.24-3.31a1.21,1.21,0,0,0,.28.84.9.9,0,0,0,1.35,0,1.14,1.14,0,0,0,.28-.79,1.19,1.19,0,0,0-.29-.82.87.87,0,0,0-1.34,0A1.12,1.12,0,0,0,29.67,51.32Z" transform="translate(-4.88 -3.98)"/><path class="cls-1" d="M33.25,54.82l.76-.08a1.81,1.81,0,0,0,.4,1,1,1,0,0,0,.72.33,1.1,1.1,0,0,0,.88-.47,2,2,0,0,0,.37-1.29A1.79,1.79,0,0,0,36,53.14a1.13,1.13,0,0,0-.9-.42,1.11,1.11,0,0,0-.61.18,1.28,1.28,0,0,0-.45.51l-.68-.11L34,49.63h2.92v.84H34.52l-.31,1.93a1.67,1.67,0,0,1,1.11-.45,1.65,1.65,0,0,1,1.28.63,2.5,2.5,0,0,1,.54,1.69,3,3,0,0,1-.54,1.8,1.72,1.72,0,0,1-1.46.75,1.74,1.74,0,0,1-1.29-.53A2.26,2.26,0,0,1,33.25,54.82Z" transform="translate(-4.88 -3.98)"/><path class="cls-1" d="M12,66.18H4.88v-4h.84v3.18H7.94V62.65h.84v2.75H12Z" transform="translate(-4.88 -3.98)"/><path class="cls-1" d="M15.37,60.09v.42H12.1a2.24,2.24,0,0,1,.35.39,2.53,2.53,0,0,1,.27.45h-.5a2.59,2.59,0,0,0-.49-.61,1.85,1.85,0,0,0-.56-.37v-.27Z" transform="translate(-4.88 -3.98)"/><path class="cls-1" d="M26.41,98.69A6.05,6.05,0,0,1,26.9,96,1.54,1.54,0,0,1,28.33,95a1.5,1.5,0,0,1,1.32.75,5.52,5.52,0,0,1,.59,2.91,6.06,6.06,0,0,1-.48,2.72,1.54,1.54,0,0,1-1.44.93,1.59,1.59,0,0,1-1.37-.82A5.47,5.47,0,0,1,26.41,98.69Zm.74,0a5.41,5.41,0,0,0,.33,2.34,1,1,0,0,0,.86.59,1,1,0,0,0,.83-.6,8.34,8.34,0,0,0,0-4.67,1,1,0,0,0-.87-.59,1,1,0,0,0-.82.6A5.48,5.48,0,0,0,27.15,98.69Z" transform="translate(-4.88 -3.98)"/><path class="cls-1" d="M31.4,102.22v-1h.82v1Z" transform="translate(-4.88 -3.98)"/><path class="cls-1" d="M33.3,96v-.84H37.1v.68a10.71,10.71,0,0,0-1.49,2.87,12.23,12.23,0,0,0-.74,3.51h-.74a10.44,10.44,0,0,1,.29-2.09,12.69,12.69,0,0,1,.74-2.28,10.1,10.1,0,0,1,1-1.85Z" transform="translate(-4.88 -3.98)"/><path class="cls-1" d="M21.85,83.51a6.05,6.05,0,0,1,.49-2.73,1.54,1.54,0,0,1,1.43-.93,1.5,1.5,0,0,1,1.32.75,5.52,5.52,0,0,1,.59,2.91,6.06,6.06,0,0,1-.48,2.72,1.54,1.54,0,0,1-1.44.93,1.59,1.59,0,0,1-1.37-.82A5.47,5.47,0,0,1,21.85,83.51Zm.74,0a5.41,5.41,0,0,0,.33,2.34,1,1,0,0,0,.86.59,1,1,0,0,0,.83-.6,5.45,5.45,0,0,0,.33-2.33,5.41,5.41,0,0,0-.33-2.34,1,1,0,0,0-.87-.59,1,1,0,0,0-.82.6A5.48,5.48,0,0,0,22.59,83.51Z" transform="translate(-4.88 -3.98)"/><path class="cls-1" d="M26.84,87V86h.82v1Z" transform="translate(-4.88 -3.98)"/><path class="cls-1" d="M28.74,80.82V80h3.79v.68A10.72,10.72,0,0,0,31,83.54,12.22,12.22,0,0,0,30.3,87h-.74A10.45,10.45,0,0,1,29.85,85a12.7,12.7,0,0,1,.74-2.28,10.1,10.1,0,0,1,1-1.85Z" transform="translate(-4.88 -3.98)"/><path class="cls-1" d="M33.25,85.17l.76-.08a1.81,1.81,0,0,0,.4,1,1,1,0,0,0,.72.33A1.1,1.1,0,0,0,36,86a2,2,0,0,0,.37-1.29A1.79,1.79,0,0,0,36,83.49a1.13,1.13,0,0,0-.9-.42,1.11,1.11,0,0,0-.61.18,1.28,1.28,0,0,0-.45.51l-.68-.11L34,80h2.92v.84H34.52l-.31,1.93a1.67,1.67,0,0,1,1.11-.45,1.65,1.65,0,0,1,1.28.63,2.5,2.5,0,0,1,.54,1.69,3,3,0,0,1-.54,1.8,1.72,1.72,0,0,1-1.46.75,1.74,1.74,0,0,1-1.29-.53A2.26,2.26,0,0,1,33.25,85.17Z" transform="translate(-4.88 -3.98)"/><path class="cls-1" d="M21.85,113.87a6.05,6.05,0,0,1,.49-2.73,1.54,1.54,0,0,1,1.43-.93,1.5,1.5,0,0,1,1.32.75,5.52,5.52,0,0,1,.59,2.91,6.06,6.06,0,0,1-.48,2.72,1.54,1.54,0,0,1-1.44.93,1.59,1.59,0,0,1-1.37-.82A5.47,5.47,0,0,1,21.85,113.87Zm.74,0a5.41,5.41,0,0,0,.33,2.34,1,1,0,0,0,.86.59,1,1,0,0,0,.83-.6,8.34,8.34,0,0,0,0-4.67,1,1,0,0,0-.87-.59,1,1,0,0,0-.82.6A5.48,5.48,0,0,0,22.59,113.86Z" transform="translate(-4.88 -3.98)"/><path class="cls-1" d="M26.84,117.4v-1h.82v1Z" transform="translate(-4.88 -3.98)"/><path class="cls-1" d="M32.43,112l-.72.07a1.71,1.71,0,0,0-.3-.78.88.88,0,0,0-.69-.34,1.14,1.14,0,0,0-1,.78,4.78,4.78,0,0,0-.33,2A1.85,1.85,0,0,1,30,113a1.45,1.45,0,0,1,.8-.24,1.54,1.54,0,0,1,1.22.63,2.58,2.58,0,0,1,.52,1.69,3.15,3.15,0,0,1-.26,1.3,2,2,0,0,1-.67.86,1.57,1.57,0,0,1-.9.28,1.74,1.74,0,0,1-1.46-.8,4.7,4.7,0,0,1-.58-2.67,5.53,5.53,0,0,1,.59-3,1.76,1.76,0,0,1,1.51-.88,1.51,1.51,0,0,1,1.12.46A2.16,2.16,0,0,1,32.43,112Zm-2.94,3.09a2,2,0,0,0,.37,1.25,1.06,1.06,0,0,0,.85.47,1,1,0,0,0,.76-.44,2,2,0,0,0,.33-1.22,1.86,1.86,0,0,0-.33-1.18,1,1,0,0,0-.81-.42,1,1,0,0,0-.82.42A1.71,1.71,0,0,0,29.49,115.08Z" transform="translate(-4.88 -3.98)"/><path class="cls-1" d="M33.25,115.52l.76-.08a1.81,1.81,0,0,0,.4,1,1,1,0,0,0,.72.33,1.1,1.1,0,0,0,.88-.47,2,2,0,0,0,.37-1.29,1.79,1.79,0,0,0-.36-1.19,1.13,1.13,0,0,0-.9-.42,1.11,1.11,0,0,0-.61.18,1.28,1.28,0,0,0-.45.51l-.68-.11.57-3.68h2.92v.84H34.52l-.31,1.93a1.67,1.67,0,0,1,1.11-.45,1.65,1.65,0,0,1,1.28.63,2.5,2.5,0,0,1,.54,1.69,3,3,0,0,1-.54,1.8,1.72,1.72,0,0,1-1.46.75,1.74,1.74,0,0,1-1.29-.53A2.26,2.26,0,0,1,33.25,115.52Z" transform="translate(-4.88 -3.98)"/><polyline class="cls-14" points="37.45 76.74 63.17 50.69 88.88 38.82 114.6 30.28 140.31 27.59 166.03 25.73 191.74 24.56 217.45 23.99"/><polyline class="cls-15" points="37.45 90.25 63.17 58.07 88.88 41.09 114.6 30.3 140.31 25.38 166.03 21.9 191.74 18.95 217.45 17.07"/><polyline class="cls-16" points="37.45 57.55 63.17 39.63 88.88 33.06 114.6 28.54 140.31 26.36 166.03 24.76 191.74 22.99 217.45 21.96"/><polyline class="cls-17" points="37.45 64.9 63.17 43.1 88.88 32.55 114.6 23.41 140.31 19.41 166.03 16.22 191.74 14.1 217.45 12.58"/><polyline class="cls-18" points="37.45 51.29 63.17 33.49 88.88 27.5 114.6 22.77 140.31 20.09 166.03 18.02 191.74 16.3 217.45 15.26"/><polyline class="cls-19" points="37.45 106.24 63.17 60.83 88.88 39.4 114.6 26.3 140.31 21.21 166.03 17.34 191.74 15.09 217.45 13.47"/><polyline class="cls-20" points="37.45 30 63.17 21.01 88.88 17.84 114.6 16.05 140.31 14.6 166.03 13.22 191.74 12.13 217.45 11.39"/></g></svg>