<svg xmlns="http://www.w3.org/2000/svg" viewBox="0 0 160.13 188.45"><defs><style>.cls-1,.cls-7{fill:#0d6caf;}.cls-1,.cls-2,.cls-3,.cls-4,.cls-5{stroke:#939598;}.cls-1,.cls-19,.cls-2,.cls-3,.cls-4,.cls-5,.cls-6{stroke-miterlimit:10;}.cls-1,.cls-2,.cls-3,.cls-4,.cls-5,.cls-6{stroke-width:0.25px;}.cls-10,.cls-2{fill:#5bbacf;}.cls-13,.cls-3{fill:#9fd5b7;}.cls-16,.cls-4{fill:#d2e8ca;}.cls-5{fill:#f2f8eb;}.cls-6{fill:#d24d27;stroke:#231f20;}.cls-8{fill:#217fb8;}.cls-9{fill:#3293c2;}.cls-11{fill:#72c6c8;}.cls-12{fill:#88cfbf;}.cls-14{fill:#b3dcb8;}.cls-15{fill:#c4e2c0;}.cls-17{fill:#dbedd4;}.cls-18{fill:#e7f2e0;}.cls-19{fill:none;stroke:#58595b;stroke-width:0.5px;}.cls-20{fill:#231f20;}.cls-21{fill:#d1d3d4;opacity:0.8;}</style></defs><title>theoryIntro</title><g id="a"><circle class="cls-1" cx="43.08" cy="42.78" r="25.93"/><circle class="cls-2" cx="43.08" cy="42.78" r="23.57"/><circle class="cls-3" cx="43.08" cy="42.78" r="19.8"/><circle class="cls-4" cx="43.08" cy="42.78" r="14.14"/><circle class="cls-5" cx="43.08" cy="42.78" r="7.07"/><circle class="cls-6" cx="50.38" cy="44.1" r="1.41" transform="translate(-4.92 -2.38) rotate(-2.08)"/><circle class="cls-6" cx="35.21" cy="37.86" r="1.41" transform="translate(-4.7 -2.93) rotate(-2.08)"/><circle class="cls-6" cx="56.2" cy="38.74" r="1.41" transform="translate(-4.72 -2.17) rotate(-2.08)"/><circle class="cls-6" cx="42.16" cy="44.69" r="1.41" transform="translate(-4.95 -2.68) rotate(-2.08)"/><circle class="cls-6" cx="46.44" cy="51.17" r="1.41" transform="matrix(1, -0.04, 0.04, 1, -5.18, -2.52)"/><circle class="cls-6" cx="46.63" cy="32.64" r="1.41" transform="translate(-4.51 -2.52) rotate(-2.08)"/><circle class="cls-6" cx="32.3" cy="49.88" r="1.41" transform="translate(-5.14 -3.03) rotate(-2.08)"/><circle class="cls-6" cx="39.37" cy="59.27" r="1.41" transform="translate(-5.48 -2.77) rotate(-2.08)"/><circle class="cls-6" cx="52.46" cy="58.72" r="1.41" transform="translate(-5.45 -2.3) rotate(-2.08)"/><circle class="cls-6" cx="58.89" cy="49.88" r="1.41" transform="translate(-5.12 -2.07) rotate(-2.08)"/></g><g id="Layer_2" data-name="Layer 2"><g id="LWPOLYLINE"><path class="cls-1" d="M113.67,40.77a13,13,0,0,1,1.6,14.35,12.14,12.14,0,1,0,22.79,7.39q0-.16.05-.32a9,9,0,0,1,10.5-7.2,12.47,12.47,0,1,0-3.15-23.47,9.2,9.2,0,0,1-12.15-4,11.91,11.91,0,1,0-19.64,13.24Z" transform="translate(-3.36 -4.23)"/></g><g id="LWPOLYLINE-2" data-name="LWPOLYLINE"><path class="cls-2" d="M121.1,43.29a4.21,4.21,0,0,1,1,8,10.2,10.2,0,1,0,14.13,8.26,7,7,0,0,1,10.05-7.14,10.78,10.78,0,1,0-3.25-17,5.74,5.74,0,0,1-9.93-3.34,10.34,10.34,0,1,0-12,11.21Z" transform="translate(-3.36 -4.23)"/></g><g id="LWPOLYLINE-3" data-name="LWPOLYLINE"><path class="cls-3" d="M143.57,36.33A6.63,6.63,0,0,1,132,32.44a9.22,9.22,0,1,0-7.06,9.62,17.74,17.74,0,0,1,18.24,6.55,9.73,9.73,0,1,0,.43-12.27Z" transform="translate(-3.36 -4.23)"/></g><g id="LWPOLYLINE-4" data-name="LWPOLYLINE"><path class="cls-3" d="M126.19,50.34a8.63,8.63,0,0,1-3,1.79,9.05,9.05,0,1,0,11.48,5.68q-.1-.31-.23-.6a8.19,8.19,0,0,1-.63-3.39,4.53,4.53,0,0,0-7.57-3.47Z" transform="translate(-3.36 -4.23)"/></g><g id="CIRCLE"><path class="cls-4" d="M119.52,60.71A6.53,6.53,0,1,1,126,67.24a6.53,6.53,0,0,1-6.53-6.53Z" transform="translate(-3.36 -4.23)"/></g><g id="CIRCLE-2" data-name="CIRCLE"><path class="cls-4" d="M116.24,33.09a6.53,6.53,0,1,1,6.53,6.53,6.53,6.53,0,0,1-6.53-6.53Z" transform="translate(-3.36 -4.23)"/></g><g id="CIRCLE-3" data-name="CIRCLE"><path class="cls-4" d="M144.36,42.73a6.53,6.53,0,1,1,6.53,6.53,6.53,6.53,0,0,1-6.53-6.53Z" transform="translate(-3.36 -4.23)"/></g><g id="CIRCLE-4" data-name="CIRCLE"><path class="cls-5" d="M147.63,42.73A3.26,3.26,0,1,1,150.89,46a3.26,3.26,0,0,1-3.26-3.26Z" transform="translate(-3.36 -4.23)"/></g><g id="CIRCLE-5" data-name="CIRCLE"><path class="cls-5" d="M122.78,60.71A3.26,3.26,0,1,1,126,64a3.26,3.26,0,0,1-3.26-3.26Z" transform="translate(-3.36 -4.23)"/></g><g id="CIRCLE-6" data-name="CIRCLE"><path class="cls-5" d="M119.51,33.09a3.26,3.26,0,1,1,3.26,3.26,3.26,3.26,0,0,1-3.26-3.26Z" transform="translate(-3.36 -4.23)"/></g><circle class="cls-6" cx="126.11" cy="61.05" r="1.36" transform="translate(-5.48 0.37) rotate(-2.08)"/><circle class="cls-6" cx="122.79" cy="33.13" r="1.36" transform="translate(-4.47 0.24) rotate(-2.08)"/><circle class="cls-6" cx="151.16" cy="42.71" r="1.36" transform="translate(-4.8 1.27) rotate(-2.08)"/></g><g id="Layer_3" data-name="Layer 3"><g id="LWPOLYLINE-5" data-name="LWPOLYLINE"><path class="cls-1" d="M23,122.53a13,13,0,0,1,1.6,14.35,12.14,12.14,0,1,0,22.79,7.39q0-.16.05-.32a9,9,0,0,1,10.5-7.2,12.47,12.47,0,1,0-3.15-23.47,9.2,9.2,0,0,1-12.15-4A11.91,11.91,0,1,0,23,122.53Z" transform="translate(-3.36 -4.23)"/></g><g id="LWPOLYLINE-6" data-name="LWPOLYLINE"><path class="cls-2" d="M30.42,125a4.21,4.21,0,0,1,1,8,10.2,10.2,0,1,0,14.13,8.26,7,7,0,0,1,10.05-7.14,10.78,10.78,0,1,0-3.25-17,5.74,5.74,0,0,1-9.93-3.34,10.34,10.34,0,1,0-12,11.21Z" transform="translate(-3.36 -4.23)"/></g><g id="LWPOLYLINE-7" data-name="LWPOLYLINE"><path class="cls-3" d="M52.9,118.09a6.63,6.63,0,0,1-11.6-3.89,9.22,9.22,0,1,0-7.06,9.62,17.74,17.74,0,0,1,18.24,6.55,9.73,9.73,0,1,0,.43-12.27Z" transform="translate(-3.36 -4.23)"/></g><g id="LWPOLYLINE-8" data-name="LWPOLYLINE"><path class="cls-3" d="M35.52,132.1a8.63,8.63,0,0,1-3,1.79A9.05,9.05,0,1,0,44,139.57q-.1-.31-.23-.6a8.19,8.19,0,0,1-.63-3.39,4.53,4.53,0,0,0-7.57-3.47Z" transform="translate(-3.36 -4.23)"/></g><g id="CIRCLE-7" data-name="CIRCLE"><path class="cls-4" d="M28.85,142.47A6.53,6.53,0,1,1,35.38,149a6.53,6.53,0,0,1-6.53-6.53Z" transform="translate(-3.36 -4.23)"/></g><g id="CIRCLE-8" data-name="CIRCLE"><path class="cls-4" d="M25.57,114.85a6.53,6.53,0,1,1,6.53,6.53,6.53,6.53,0,0,1-6.53-6.53Z" transform="translate(-3.36 -4.23)"/></g><g id="CIRCLE-9" data-name="CIRCLE"><path class="cls-4" d="M53.69,124.49A6.53,6.53,0,1,1,60.22,131a6.53,6.53,0,0,1-6.53-6.53Z" transform="translate(-3.36 -4.23)"/></g><g id="CIRCLE-10" data-name="CIRCLE"><path class="cls-5" d="M57,124.49a3.26,3.26,0,1,1,3.26,3.26A3.26,3.26,0,0,1,57,124.49Z" transform="translate(-3.36 -4.23)"/></g><g id="CIRCLE-11" data-name="CIRCLE"><path class="cls-5" d="M32.11,142.47a3.26,3.26,0,1,1,3.26,3.26,3.26,3.26,0,0,1-3.26-3.26Z" transform="translate(-3.36 -4.23)"/></g><g id="CIRCLE-12" data-name="CIRCLE"><path class="cls-5" d="M28.84,114.85a3.26,3.26,0,1,1,3.26,3.26,3.26,3.26,0,0,1-3.26-3.26Z" transform="translate(-3.36 -4.23)"/></g><circle class="cls-6" cx="32.2" cy="146.43" r="1.36" transform="translate(-8.64 -2.97) rotate(-2.08)"/><circle class="cls-6" cx="40.55" cy="135.09" r="1.36" transform="translate(-8.22 -2.68) rotate(-2.08)"/><circle class="cls-6" cx="39.91" cy="122.38" r="1.36" transform="translate(-7.76 -2.71) rotate(-2.08)"/><circle class="cls-6" cx="25.82" cy="119.23" r="1.36" transform="translate(-7.66 -3.22) rotate(-2.08)"/><circle class="cls-6" cx="51.59" cy="123.07" r="1.36" transform="translate(-7.78 -2.28) rotate(-2.08)"/><circle class="cls-6" cx="34.08" cy="110.58" r="1.36" transform="translate(-7.34 -2.93) rotate(-2.08)"/><circle class="cls-6" cx="64.94" cy="122.81" r="1.36" transform="translate(-7.76 -1.8) rotate(-2.08)"/></g><g id="Layer_4" data-name="Layer 4"><g id="LWPOLYLINE-9" data-name="LWPOLYLINE"><path class="cls-1" d="M113.67,122.53a13,13,0,0,1,1.6,14.35,12.14,12.14,0,1,0,22.79,7.39q0-.16.05-.32a9,9,0,0,1,10.5-7.2,12.47,12.47,0,1,0-3.15-23.47,9.2,9.2,0,0,1-12.15-4,11.91,11.91,0,1,0-19.64,13.24Z" transform="translate(-3.36 -4.23)"/></g><g id="LWPOLYLINE-10" data-name="LWPOLYLINE"><path class="cls-2" d="M121.1,125a4.21,4.21,0,0,1,1,8,10.2,10.2,0,1,0,14.13,8.26,7,7,0,0,1,10.05-7.14,10.78,10.78,0,1,0-3.25-17,5.74,5.74,0,0,1-9.93-3.34,10.34,10.34,0,1,0-12,11.21Z" transform="translate(-3.36 -4.23)"/></g><g id="LWPOLYLINE-11" data-name="LWPOLYLINE"><path class="cls-3" d="M143.57,118.09A6.63,6.63,0,0,1,132,114.2a9.22,9.22,0,1,0-7.06,9.62,17.74,17.74,0,0,1,18.24,6.55,9.73,9.73,0,1,0,.43-12.27Z" transform="translate(-3.36 -4.23)"/></g><g id="LWPOLYLINE-12" data-name="LWPOLYLINE"><path class="cls-3" d="M126.19,132.1a8.63,8.63,0,0,1-3,1.79,9.05,9.05,0,1,0,11.48,5.68q-.1-.31-.23-.6a8.19,8.19,0,0,1-.63-3.39,4.53,4.53,0,0,0-7.57-3.47Z" transform="translate(-3.36 -4.23)"/></g><g id="CIRCLE-13" data-name="CIRCLE"><path class="cls-4" d="M119.52,142.47A6.53,6.53,0,1,1,126,149a6.53,6.53,0,0,1-6.53-6.53Z" transform="translate(-3.36 -4.23)"/></g><g id="CIRCLE-14" data-name="CIRCLE"><path class="cls-4" d="M116.24,114.85a6.53,6.53,0,1,1,6.53,6.53,6.53,6.53,0,0,1-6.53-6.53Z" transform="translate(-3.36 -4.23)"/></g><g id="CIRCLE-15" data-name="CIRCLE"><path class="cls-4" d="M144.36,124.49a6.53,6.53,0,1,1,6.53,6.53,6.53,6.53,0,0,1-6.53-6.53Z" transform="translate(-3.36 -4.23)"/></g><g id="CIRCLE-16" data-name="CIRCLE"><path class="cls-5" d="M147.63,124.49a3.26,3.26,0,1,1,3.26,3.26,3.26,3.26,0,0,1-3.26-3.26Z" transform="translate(-3.36 -4.23)"/></g><g id="CIRCLE-17" data-name="CIRCLE"><path class="cls-5" d="M122.78,142.47a3.26,3.26,0,1,1,3.26,3.26,3.26,3.26,0,0,1-3.26-3.26Z" transform="translate(-3.36 -4.23)"/></g><g id="CIRCLE-18" data-name="CIRCLE"><path class="cls-5" d="M119.51,114.85a3.26,3.26,0,1,1,3.26,3.26,3.26,3.26,0,0,1-3.26-3.26Z" transform="translate(-3.36 -4.23)"/></g><circle class="cls-6" cx="123.88" cy="142.53" r="1.36" transform="translate(-8.44 0.35) rotate(-2.08)"/><circle class="cls-6" cx="127.88" cy="142.86" r="1.36" transform="translate(-8.45 0.49) rotate(-2.08)"/><circle class="cls-6" cx="122.83" cy="112.82" r="1.36" transform="translate(-7.36 0.29) rotate(-2.08)"/><circle class="cls-6" cx="120.57" cy="115.85" r="1.36" transform="translate(-7.47 0.21) rotate(-2.08)"/><circle class="cls-6" cx="124.2" cy="115.93" r="1.36" transform="translate(-7.47 0.34) rotate(-2.08)"/><circle class="cls-6" cx="151.42" cy="122.94" r="1.36" transform="translate(-7.71 1.33) rotate(-2.08)"/><circle class="cls-6" cx="150.54" cy="126.44" r="1.36" transform="translate(-7.84 1.3) rotate(-2.08)"/></g><g id="colorbar"><rect class="cls-7" x="138.1" y="164.68" width="10" height="10" transform="translate(309.43 22.35) rotate(90)"/><rect class="cls-8" x="128.1" y="164.68" width="10" height="10" transform="translate(299.43 32.35) rotate(90)"/><rect class="cls-9" x="118.1" y="164.68" width="10" height="10" transform="translate(289.43 42.35) rotate(90)"/><rect class="cls-10" x="108.1" y="164.68" width="10" height="10" transform="translate(279.43 52.35) rotate(90)"/><rect class="cls-11" x="98.1" y="164.68" width="10" height="10" transform="translate(269.43 62.35) rotate(90)"/><rect class="cls-12" x="88.1" y="164.68" width="10" height="10" transform="translate(259.43 72.35) rotate(90)"/><rect class="cls-13" x="78.1" y="164.68" width="10" height="10" transform="translate(249.43 82.35) rotate(90)"/><rect class="cls-14" x="68.1" y="164.68" width="10" height="10" transform="translate(239.43 92.35) rotate(90)"/><rect class="cls-15" x="58.1" y="164.68" width="10" height="10" transform="translate(229.43 102.35) rotate(90)"/><rect class="cls-16" x="48.1" y="164.68" width="10" height="10" transform="translate(219.43 112.35) rotate(90)"/><rect class="cls-17" x="38.1" y="164.68" width="10" height="10" transform="translate(209.43 122.35) rotate(90)"/><rect class="cls-18" x="28.1" y="164.68" width="10" height="10" transform="translate(199.43 132.35) rotate(90)"/><rect class="cls-19" x="83.1" y="109.68" width="10" height="120" transform="translate(254.43 77.35) rotate(90)"/><line class="cls-19" x1="139.75" y1="170.45" x2="139.75" y2="172.4"/><line class="cls-19" x1="129.75" y1="170.45" x2="129.75" y2="172.4"/><line class="cls-19" x1="119.75" y1="170.45" x2="119.75" y2="172.4"/><line class="cls-19" x1="101.83" y1="170.45" x2="101.83" y2="172.4"/><line class="cls-19" x1="81.37" y1="170.45" x2="81.37" y2="172.4"/><line class="cls-19" x1="54.21" y1="170.45" x2="54.21" y2="172.4"/><line class="cls-19" x1="29.75" y1="170.45" x2="29.75" y2="172.4"/><path class="cls-20" d="M58.57,190.58v-7.16h2.21a3.56,3.56,0,0,1,1.15.14,1.55,1.55,0,0,1,.81.69,2.35,2.35,0,0,1,.3,1.24,2.43,2.43,0,0,1-.49,1.58,2.08,2.08,0,0,1-1.7.61h-1.5v2.91Zm.78-3.75h1.52a1.46,1.46,0,0,0,1-.33,1.31,1.31,0,0,0,.33-1,1.51,1.51,0,0,0-.16-.73.92.92,0,0,0-.39-.42,2.14,2.14,0,0,0-.84-.11h-1.5Z" transform="translate(-3.36 -4.23)"/><path class="cls-20" d="M63.67,188a3.13,3.13,0,0,1,.56-2,1.83,1.83,0,0,1,2.85,0,3,3,0,0,1,.57,2,3.24,3.24,0,0,1-.56,2.08,1.83,1.83,0,0,1-2.85,0A3.1,3.1,0,0,1,63.67,188Zm.74,0a2.51,2.51,0,0,0,.37,1.5,1.1,1.1,0,0,0,.91.49,1.06,1.06,0,0,0,.87-.5,2.53,2.53,0,0,0,.36-1.49,2.49,2.49,0,0,0-.37-1.49,1.1,1.1,0,0,0-.91-.49,1.06,1.06,0,0,0-.87.49A2.52,2.52,0,0,0,64.41,188Z" transform="translate(-3.36 -4.23)"/><path class="cls-20" d="M70.1,189.79l.1.78a2.15,2.15,0,0,1-.54.08,1.09,1.09,0,0,1-.61-.15.76.76,0,0,1-.32-.41,4,4,0,0,1-.08-1v-3h-.53v-.68h.53v-1.28l.72-.53v1.81h.73v.68h-.73v3a1.44,1.44,0,0,0,.06.54.36.36,0,0,0,.35.18Z" transform="translate(-3.36 -4.23)"/><path class="cls-20" d="M73.69,188.91l.74.11a2.25,2.25,0,0,1-.67,1.25,1.76,1.76,0,0,1-1.2.42,1.8,1.8,0,0,1-1.46-.69,3.07,3.07,0,0,1-.56-2,3.21,3.21,0,0,1,.56-2,1.75,1.75,0,0,1,1.43-.71,1.69,1.69,0,0,1,1.38.69,3.16,3.16,0,0,1,.55,2v.23H71.28a2.24,2.24,0,0,0,.41,1.32,1.1,1.1,0,0,0,.88.44Q73.37,190,73.69,188.91Zm-2.37-1.42h2.37a2,2,0,0,0-.29-1,1,1,0,0,0-1.71-.08A1.77,1.77,0,0,0,71.32,187.49Z" transform="translate(-3.36 -4.23)"/><path class="cls-20" d="M75.34,190.58v-5.19H76v.73a1.68,1.68,0,0,1,.57-.64,1.44,1.44,0,0,1,.78-.21,1.49,1.49,0,0,1,.63.13,1.3,1.3,0,0,1,.47.35,1.43,1.43,0,0,1,.27.56,4.7,4.7,0,0,1,.09,1.06v3.19h-.72v-3.16a2.6,2.6,0,0,0-.1-.84.84.84,0,0,0-.31-.41.82.82,0,0,0-.48-.14,1,1,0,0,0-.83.39,2.17,2.17,0,0,0-.31,1.33v2.83Z" transform="translate(-3.36 -4.23)"/><path class="cls-20" d="M81.51,189.79l.1.78a2.15,2.15,0,0,1-.54.08,1.09,1.09,0,0,1-.61-.15.76.76,0,0,1-.32-.41,4,4,0,0,1-.08-1v-3h-.53v-.68h.53v-1.28l.72-.53v1.81h.73v.68h-.73v3a1.44,1.44,0,0,0,.06.54.36.36,0,0,0,.35.18Z" transform="translate(-3.36 -4.23)"/><path class="cls-20" d="M82.18,184.43v-1h.72v1Zm0,6.15v-5.19h.72v5.19Z" transform="translate(-3.36 -4.23)"/><path class="cls-20" d="M86.77,189.94a2.7,2.7,0,0,1-.75.57,1.83,1.83,0,0,1-.81.19,1.42,1.42,0,0,1-1.06-.4,1.47,1.47,0,0,1-.4-1.08,1.65,1.65,0,0,1,.19-.8,1.38,1.38,0,0,1,.51-.54,2.65,2.65,0,0,1,1-.29,5.45,5.45,0,0,0,1.29-.31v-.22a1.13,1.13,0,0,0-.19-.75,1,1,0,0,0-.83-.31,1.15,1.15,0,0,0-.75.21,1.37,1.37,0,0,0-.37.78l-.71-.12a2,2,0,0,1,.61-1.22,2,2,0,0,1,1.32-.38,1.89,1.89,0,0,1,1,.25,1.08,1.08,0,0,1,.48.62,4.39,4.39,0,0,1,.1,1.08v1.17a15.19,15.19,0,0,0,0,1.55,2.34,2.34,0,0,0,.18.62h-.75A2.16,2.16,0,0,1,86.77,189.94Zm-.06-2a4.61,4.61,0,0,1-1.18.33,2.21,2.21,0,0,0-.63.18.7.7,0,0,0-.28.28.86.86,0,0,0-.1.42.78.78,0,0,0,.23.59.87.87,0,0,0,.63.22,1.29,1.29,0,0,0,.7-.2,1.25,1.25,0,0,0,.47-.54,2.37,2.37,0,0,0,.16-1Z" transform="translate(-3.36 -4.23)"/><path class="cls-20" d="M88.54,190.58v-7.16h.72v7.16Z" transform="translate(-3.36 -4.23)"/><path class="cls-20" d="M95.57,188.91l.74.11a2.25,2.25,0,0,1-.67,1.25,1.76,1.76,0,0,1-1.2.42A1.8,1.8,0,0,1,93,190a3.07,3.07,0,0,1-.56-2,3.21,3.21,0,0,1,.56-2,1.75,1.75,0,0,1,1.43-.71,1.69,1.69,0,0,1,1.38.69,3.16,3.16,0,0,1,.55,2v.23H93.16a2.24,2.24,0,0,0,.41,1.32,1.1,1.1,0,0,0,.88.44Q95.25,190,95.57,188.91Zm-2.37-1.42h2.37a2,2,0,0,0-.29-1,1,1,0,0,0-1.71-.08A1.77,1.77,0,0,0,93.2,187.49Z" transform="translate(-3.36 -4.23)"/><path class="cls-20" d="M97.23,190.58v-5.19h.65v.73a1.68,1.68,0,0,1,.57-.64,1.44,1.44,0,0,1,.78-.21,1.49,1.49,0,0,1,.63.13,1.3,1.3,0,0,1,.47.35,1.43,1.43,0,0,1,.27.56,4.7,4.7,0,0,1,.09,1.06v3.19H100v-3.16a2.6,2.6,0,0,0-.1-.84.84.84,0,0,0-.31-.41.82.82,0,0,0-.48-.14,1,1,0,0,0-.83.39,2.17,2.17,0,0,0-.31,1.33v2.83Z" transform="translate(-3.36 -4.23)"/><path class="cls-20" d="M104.69,188.91l.74.11a2.25,2.25,0,0,1-.67,1.25,1.76,1.76,0,0,1-1.2.42,1.8,1.8,0,0,1-1.46-.69,3.07,3.07,0,0,1-.56-2,3.21,3.21,0,0,1,.56-2,1.75,1.75,0,0,1,1.43-.71,1.69,1.69,0,0,1,1.38.69,3.16,3.16,0,0,1,.55,2v.23h-3.17a2.24,2.24,0,0,0,.41,1.32,1.1,1.1,0,0,0,.88.44Q104.38,190,104.69,188.91Zm-2.37-1.42h2.37a2,2,0,0,0-.29-1,1,1,0,0,0-1.71-.08A1.77,1.77,0,0,0,102.33,187.49Z" transform="translate(-3.36 -4.23)"/><path class="cls-20" d="M106.35,190.58v-5.19H107v.79a2.2,2.2,0,0,1,.46-.73.7.7,0,0,1,.47-.18,1.23,1.23,0,0,1,.74.28l-.24.82a.91.91,0,0,0-.52-.19.63.63,0,0,0-.42.16.86.86,0,0,0-.27.45,4.07,4.07,0,0,0-.14,1.07v2.71Z" transform="translate(-3.36 -4.23)"/><path class="cls-20" d="M108.94,191l.7.13a.91.91,0,0,0,.29.62,1,1,0,0,0,.68.2,1.05,1.05,0,0,0,1.14-.9,6.48,6.48,0,0,0,.06-1.15,1.68,1.68,0,0,1-.53.5,1.27,1.27,0,0,1-.65.17,1.54,1.54,0,0,1-1.26-.64,3.16,3.16,0,0,1-.58-2,3.87,3.87,0,0,1,.25-1.46,2,2,0,0,1,.67-.92,1.56,1.56,0,0,1,.92-.29,1.32,1.32,0,0,1,.69.18,1.69,1.69,0,0,1,.55.55v-.62h.66v4.48a5.27,5.27,0,0,1-.2,1.71,1.65,1.65,0,0,1-.64.81,1.88,1.88,0,0,1-1.07.3,1.72,1.72,0,0,1-1.27-.44A1.62,1.62,0,0,1,108.94,191Zm.6-3.12a2.59,2.59,0,0,0,.34,1.49,1,1,0,0,0,.83.47,1,1,0,0,0,.83-.46,2.48,2.48,0,0,0,.34-1.46,2.45,2.45,0,0,0-.35-1.46,1,1,0,0,0-.86-.48,1,1,0,0,0-.79.48A2.44,2.44,0,0,0,109.53,187.89Z" transform="translate(-3.36 -4.23)"/><path class="cls-20" d="M113.61,192.58l-.08-.83a1.37,1.37,0,0,0,.41.08.71.71,0,0,0,.38-.09.7.7,0,0,0,.25-.29s.12-.33.28-.86l-1.62-5.19H114l.89,3q.17.56.31,1.2.12-.6.29-1.18l.91-3h.72l-1.61,5.27A9.4,9.4,0,0,1,115,192a1.31,1.31,0,0,1-.42.5.94.94,0,0,1-.53.15A1.24,1.24,0,0,1,113.61,192.58Z" transform="translate(-3.36 -4.23)"/><path class="cls-20" d="M25.43,186.84v-7.16h.78V186H29.1v.84Z" transform="translate(-3.36 -4.23)"/><path class="cls-20" d="M29.67,184.25a3.13,3.13,0,0,1,.56-2,1.83,1.83,0,0,1,2.85,0,3,3,0,0,1,.57,2,3.23,3.23,0,0,1-.56,2.08,1.83,1.83,0,0,1-2.85,0A3.1,3.1,0,0,1,29.67,184.25Zm.74,0a2.5,2.5,0,0,0,.37,1.5,1.1,1.1,0,0,0,.91.49,1.06,1.06,0,0,0,.87-.5,3.24,3.24,0,0,0,0-3,1.1,1.1,0,0,0-.91-.49,1.06,1.06,0,0,0-.87.49A2.52,2.52,0,0,0,30.4,184.24Z" transform="translate(-3.36 -4.23)"/><path class="cls-20" d="M35.28,186.84,34,181.65h.75l.68,3,.25,1.11.23-1.07.67-3h.74l.63,3,.21,1,.24-1,.73-3h.7l-1.33,5.19h-.75l-.68-3.11-.16-.88-.86,4Z" transform="translate(-3.36 -4.23)"/><path class="cls-20" d="M136.14,186.84v-7.16h.78v2.94H140v-2.94h.78v7.16H140v-3.37h-3.05v3.37Z" transform="translate(-3.36 -4.23)"/><path class="cls-20" d="M142,180.69v-1h.72v1Zm0,6.15v-5.19h.72v5.19Z" transform="translate(-3.36 -4.23)"/><path class="cls-20" d="M143.64,187.27l.7.13a.91.91,0,0,0,.29.62,1,1,0,0,0,.68.2,1,1,0,0,0,1.14-.9,6.47,6.47,0,0,0,.06-1.15,1.68,1.68,0,0,1-.53.5,1.27,1.27,0,0,1-.65.17,1.54,1.54,0,0,1-1.26-.64,3.16,3.16,0,0,1-.58-2,3.87,3.87,0,0,1,.25-1.46,2,2,0,0,1,.67-.92,1.56,1.56,0,0,1,.92-.29,1.32,1.32,0,0,1,.69.18,1.71,1.71,0,0,1,.55.55v-.62h.66v4.48a5.27,5.27,0,0,1-.2,1.71,1.65,1.65,0,0,1-.64.81,1.89,1.89,0,0,1-1.07.29,1.72,1.72,0,0,1-1.27-.44A1.62,1.62,0,0,1,143.64,187.27Zm.6-3.12a2.59,2.59,0,0,0,.34,1.49,1,1,0,0,0,.83.47,1,1,0,0,0,.83-.46,3.24,3.24,0,0,0,0-2.92,1,1,0,0,0-.86-.48,1,1,0,0,0-.79.48A2.44,2.44,0,0,0,144.24,184.15Z" transform="translate(-3.36 -4.23)"/><path class="cls-20" d="M148.35,186.84v-7.16h.72v2.57a1.76,1.76,0,0,1,.57-.53,1.42,1.42,0,0,1,.71-.18,1.38,1.38,0,0,1,1.07.43,2.4,2.4,0,0,1,.39,1.58v3.29h-.72v-3.29a1.54,1.54,0,0,0-.24-1,.8.8,0,0,0-.66-.29,1,1,0,0,0-.8.38,2,2,0,0,0-.33,1.33v2.84Z" transform="translate(-3.36 -4.23)"/><rect class="cls-21" x="91.25" y="81.76" width="15" height="15"/><rect class="cls-21" y="81.76" width="15" height="15"/><rect class="cls-21" width="15" height="15"/><rect class="cls-21" x="91.25" width="15" height="15"/><path class="cls-20" d="M10.94,13.33a2.89,2.89,0,0,1-1.8.88,1.06,1.06,0,0,1-.78-.31,1,1,0,0,1-.31-.77A1.51,1.51,0,0,1,8.59,12a10.2,10.2,0,0,1,2.35-1.33v-.55a2.67,2.67,0,0,0-.07-.78.63.63,0,0,0-.25-.28.77.77,0,0,0-.42-.12,1.08,1.08,0,0,0-.63.17.3.3,0,0,0-.15.25.51.51,0,0,0,.16.3.75.75,0,0,1,.22.49.65.65,0,0,1-.21.49.78.78,0,0,1-.56.2.89.89,0,0,1-.62-.22.68.68,0,0,1-.25-.52,1.21,1.21,0,0,1,.33-.81,2.11,2.11,0,0,1,.93-.59,3.8,3.8,0,0,1,1.24-.21,2.05,2.05,0,0,1,1.23.33,1.55,1.55,0,0,1,.59.72,4.65,4.65,0,0,1,.08,1.13V12.8a2.2,2.2,0,0,0,0,.47.28.28,0,0,0,.09.14.21.21,0,0,0,.13,0q.15,0,.31-.22l.18.14a2.14,2.14,0,0,1-.61.63,1.31,1.31,0,0,1-.71.2,1.11,1.11,0,0,1-.73-.22A1,1,0,0,1,10.94,13.33Zm0-.43V11.07A3.42,3.42,0,0,0,9.89,12a1.08,1.08,0,0,0-.23.64.67.67,0,0,0,.19.47.53.53,0,0,0,.41.16A1.13,1.13,0,0,0,10.94,12.9Z" transform="translate(-3.36 -4.23)"/><path class="cls-20" d="M101.42,7.19v3a2.08,2.08,0,0,1,1.51-.71,1.88,1.88,0,0,1,1.06.33,2.21,2.21,0,0,1,.78.94,3.32,3.32,0,0,1,.28,1.41,3.66,3.66,0,0,1-.36,1.63,2.68,2.68,0,0,1-1,1.12,2.47,2.47,0,0,1-1.37.38,2.09,2.09,0,0,1-.79-.14,2.21,2.21,0,0,1-.68-.46l-.91.59h-.2v-7a2.37,2.37,0,0,0,0-.59.46.46,0,0,0-.18-.24.91.91,0,0,0-.42-.09V7.19Zm0,3.54v2.44a7.54,7.54,0,0,0,0,.95,1,1,0,0,0,.28.56.79.79,0,0,0,.57.21.8.8,0,0,0,.51-.17,1.32,1.32,0,0,0,.36-.67,7.67,7.67,0,0,0,.14-1.82A3.32,3.32,0,0,0,103,10.5a.71.71,0,0,0-.62-.34A1.28,1.28,0,0,0,101.42,10.73Z" transform="translate(-3.36 -4.23)"/><path class="cls-20" d="M104.63,88.76v6.3a4.27,4.27,0,0,0,0,.76.47.47,0,0,0,.18.29,1,1,0,0,0,.46.12v.19l-2.31.45V96a2.88,2.88,0,0,1-.74.69,1.48,1.48,0,0,1-.74.18,1.89,1.89,0,0,1-1.66-.94,3.37,3.37,0,0,1-.49-1.87,3.94,3.94,0,0,1,.3-1.58,2.37,2.37,0,0,1,.83-1.06,2,2,0,0,1,1.14-.36,1.54,1.54,0,0,1,.7.15,2.34,2.34,0,0,1,.65.53V90.1a3,3,0,0,0-.05-.76.5.5,0,0,0-.21-.25,1.16,1.16,0,0,0-.53-.08v-.25ZM103,92.48q-.43-.83-1.06-.83a.54.54,0,0,0-.36.12,1.32,1.32,0,0,0-.35.64,5.24,5.24,0,0,0-.14,1.4,5.67,5.67,0,0,0,.15,1.54,1.49,1.49,0,0,0,.42.72.56.56,0,0,0,.37.11q.52,0,1-.81Z" transform="translate(-3.36 -4.23)"/><path class="cls-20" d="M12.39,95.29l.18.14a2.73,2.73,0,0,1-1,1.08,2.31,2.31,0,0,1-1.23.35A2.12,2.12,0,0,1,8.63,96a3.1,3.1,0,0,1-.66-2,3.34,3.34,0,0,1,.6-2,2.3,2.3,0,0,1,2-1,2,2,0,0,1,1.35.43,1.24,1.24,0,0,1,.5,1,.71.71,0,0,1-.2.53.72.72,0,0,1-.53.2A.77.77,0,0,1,11.1,93a1.33,1.33,0,0,1-.28-.81.89.89,0,0,0-.17-.52.42.42,0,0,0-.32-.15.57.57,0,0,0-.48.3,2.5,2.5,0,0,0-.3,1.38,4.46,4.46,0,0,0,.25,1.48,2.27,2.27,0,0,0,.67,1.05,1.2,1.2,0,0,0,.76.25,1.16,1.16,0,0,0,.54-.13A2.51,2.51,0,0,0,12.39,95.29Z" transform="translate(-3.36 -4.23)"/></g></svg>